<?xml version="1.0" encoding="UTF-8"?>
<svg width="auto" height="auto" viewBox="0 0 371 138" version="1.1" xmlns="http://www.w3.org/2000/svg" xmlns:xlink="http://www.w3.org/1999/xlink">
    <title>_source/DolbyAudio  - vertical</title>
    <defs>
        <path d="M358.9506,22.1927 L344.7316,54.1617 L330.5136,22.1927 L318.5906,22.1927 L338.7696,67.5517 L338.3656,68.4297 L338.2206,68.7447 L333.8526,78.6137 C333.8416,78.6387 333.8346,78.6657 333.8226,78.6907 C332.5136,81.6237 329.0626,82.9507 326.1376,81.6457 L324.5716,80.9467 L321.5206,87.7967 L320.1656,90.8357 L320.1666,90.8357 L320.1846,90.8427 L323.9656,92.5297 C331.0596,95.6957 339.4306,92.4767 342.6046,85.3627 C342.6316,85.3037 368.4466,27.6127 370.8726,22.1927 L358.9506,22.1927 Z M294.0146,62.0757 C287.3416,62.0757 281.7336,57.7317 279.7506,51.7717 C279.2536,50.2787 278.9736,48.6887 278.9736,47.0347 C278.9736,45.3717 279.2536,43.7777 279.7506,42.2857 C281.7476,36.2907 287.4056,31.9927 294.0146,31.9927 C302.2696,31.9927 309.0566,38.7797 309.0566,47.0347 C309.0566,55.3807 302.2696,62.0757 294.0146,62.0757 L294.0146,62.0757 Z M294.0146,22.1787 C288.7136,22.1787 283.7966,23.8457 279.7506,26.6757 L279.7506,0.0127 L268.8136,0.0127 L268.8146,72.0877 L279.7506,72.0877 L279.7506,67.5757 C283.7966,70.4057 288.7136,72.0737 294.0146,72.0737 C307.7726,72.0737 318.9626,60.8827 318.9626,47.1267 C318.9626,33.3687 307.7726,22.1787 294.0146,22.1787 L294.0146,22.1787 Z M248.7276,72.0877 L259.6426,72.0877 L259.6426,0.0127 L248.7276,0.0127 L248.7276,72.0877 Z M216.7196,62.0727 C208.3726,62.0727 201.6776,55.2857 201.6776,47.0317 C201.6776,38.6847 208.4646,31.9897 216.7196,31.9897 C224.9736,31.9897 231.7606,38.7767 231.7606,47.0317 C231.7606,55.3777 224.9736,62.0727 216.7196,62.0727 L216.7196,62.0727 Z M216.7196,22.1757 C202.9616,22.1757 191.7716,33.3657 191.7716,47.1237 C191.7716,60.8807 202.9616,72.0697 216.7196,72.0697 C230.4766,72.0697 241.6666,60.8807 241.6666,47.1237 C241.6666,33.3657 230.4766,22.1757 216.7196,22.1757 L216.7196,22.1757 Z M150.2326,61.0857 L142.8316,61.0857 L135.1446,61.0857 L135.1446,10.9157 L142.8316,10.9157 L150.2326,10.9157 C164.0526,10.9157 175.3176,22.1807 175.3176,36.0007 C175.3176,49.8197 164.0526,61.0857 150.2326,61.0857 L150.2326,61.0857 Z M150.2336,-0.0003 L124.2296,-0.0003 L124.2296,72.0007 L150.2336,72.0007 C170.0836,72.0007 186.2336,55.8507 186.2336,36.0007 C186.2336,16.1497 170.0836,-0.0003 150.2336,-0.0003 L150.2336,-0.0003 Z M102.4276,-0.0003 L91.8056,-0.0003 C71.9726,-0.0003 55.8056,16.1677 55.8056,35.9997 C55.8056,55.8327 71.9726,71.9997 91.8056,71.9997 L102.4276,71.9997 L102.4276,-0.0003 Z M-0.0004,71.9997 L10.6216,71.9997 C30.4546,71.9997 46.6216,55.8327 46.6216,35.9997 C46.6216,16.1677 30.4546,-0.0003 10.6216,-0.0003 L-0.0004,-0.0003 L-0.0004,71.9997 Z M268.9586,121.1617 C268.9586,119.4577 268.6796,117.8477 268.1216,116.3347 C267.5626,114.8207 266.7696,113.4917 265.7406,112.3457 C264.7116,111.1987 263.4716,110.2957 262.0166,109.6337 C260.5616,108.9737 258.9216,108.6427 257.1016,108.6427 C255.3076,108.6427 253.6836,108.9737 252.2316,109.6337 C250.7766,110.2957 249.5426,111.1987 248.5286,112.3457 C247.5146,113.4917 246.7266,114.8207 246.1696,116.3347 C245.6106,117.8477 245.3336,119.4577 245.3336,121.1617 C245.3336,122.8957 245.6106,124.5267 246.1696,126.0537 C246.7266,127.5827 247.5216,128.9127 248.5496,130.0437 C249.5776,131.1747 250.8116,132.0637 252.2526,132.7097 C253.6916,133.3557 255.3076,133.6787 257.1016,133.6787 C258.8936,133.6787 260.5226,133.3557 261.9936,132.7097 C263.4646,132.0637 264.7116,131.1747 265.7406,130.0437 C266.7696,128.9127 267.5626,127.5827 268.1216,126.0537 C268.6796,124.5267 268.9586,122.8957 268.9586,121.1617 L268.9586,121.1617 Z M273.6756,121.1617 C273.6756,123.5707 273.2576,125.7827 272.4186,127.7957 C271.5816,129.8077 270.4266,131.5417 268.9586,132.9967 C267.4876,134.4507 265.7406,135.5827 263.7136,136.3907 C261.6856,137.1977 259.4806,137.6017 257.1016,137.6017 C254.7216,137.6017 252.5236,137.1977 250.5126,136.3907 C248.4976,135.5827 246.7576,134.4507 245.2876,132.9967 C243.8186,131.5417 242.6726,129.8077 241.8506,127.7957 C241.0266,125.7827 240.6166,123.5707 240.6166,121.1617 C240.6166,118.7217 241.0266,116.4967 241.8506,114.4837 C242.6726,112.4697 243.8186,110.7527 245.2876,109.3257 C246.7576,107.9007 248.4976,106.7917 250.5126,105.9987 C252.5236,105.2057 254.7216,104.8067 257.1016,104.8067 C259.4806,104.8067 261.6856,105.2057 263.7136,105.9987 C265.7406,106.7917 267.4876,107.9007 268.9586,109.3257 C270.4266,110.7527 271.5816,112.4697 272.4186,114.4837 C273.2576,116.4967 273.6756,118.7217 273.6756,121.1617 L273.6756,121.1617 Z M222.1506,137.5557 L226.7336,137.5557 L226.7336,104.7907 L222.1506,104.7907 L222.1506,137.5557 Z M183.5076,133.5287 L189.2436,133.5287 C191.2186,133.5287 193.0486,133.2517 194.7286,132.6957 C196.4106,132.1407 197.8596,131.3387 199.0776,130.2907 C200.2986,129.2407 201.2466,127.9457 201.9266,126.4017 C202.6016,124.8597 202.9446,123.1167 202.9446,121.1717 C202.9446,119.1367 202.6016,117.3477 201.9266,115.8047 C201.2466,114.2617 200.2986,112.9747 199.0776,111.9397 C197.8596,110.9067 196.4106,110.1197 194.7286,109.5797 C193.0486,109.0407 191.2186,108.7697 189.2436,108.7697 L183.5076,108.7697 L183.5076,133.5287 Z M178.9246,104.7907 L190.1706,104.7907 C192.2666,104.7907 194.3656,105.0987 196.4646,105.7157 C198.5606,106.3337 200.4606,107.3057 202.1576,108.6307 C203.8516,109.9587 205.2256,111.6557 206.2746,113.7217 C207.3226,115.7887 207.8476,118.2727 207.8476,121.1717 C207.8476,123.9807 207.3226,126.4107 206.2746,128.4627 C205.2256,130.5137 203.8516,132.2097 202.1576,133.5527 C200.4606,134.8947 198.5606,135.8967 196.4646,136.5597 C194.3656,137.2237 192.2666,137.5547 190.1706,137.5547 L178.9246,137.5547 L178.9246,104.7907 Z M158.2076,136.4677 C159.8116,135.7437 161.1396,134.7787 162.1876,133.5757 C163.2356,132.3727 164.0166,130.9917 164.5266,129.4347 C165.0356,127.8757 165.2886,126.2627 165.2886,124.5977 L165.2886,104.7907 L160.7086,104.7907 L160.7086,124.3207 C160.7086,125.4307 160.5686,126.5337 160.2906,127.6297 C160.0136,128.7247 159.5576,129.7037 158.9246,130.5677 C158.2946,131.4317 157.4506,132.1267 156.4026,132.6497 C155.3546,133.1747 154.0756,133.4367 152.5636,133.4367 C151.0196,133.4367 149.7316,133.1747 148.6976,132.6497 C147.6646,132.1267 146.8326,131.4317 146.1996,130.5677 C145.5666,129.7037 145.1106,128.7247 144.8336,127.6297 C144.5556,126.5337 144.4186,125.4307 144.4186,124.3207 L144.4186,104.7907 L139.8356,104.7907 L139.8356,124.5977 C139.8356,126.2627 140.0916,127.8757 140.6006,129.4347 C141.1096,130.9917 141.8886,132.3727 142.9366,133.5757 C143.9846,134.7787 145.3126,135.7437 146.9156,136.4677 C148.5186,137.1927 150.4026,137.5547 152.5636,137.5547 C154.7216,137.5547 156.6046,137.1927 158.2076,136.4677 L158.2076,136.4677 Z M107.1936,125.4767 L119.4576,125.4767 L113.3466,110.1117 L107.1936,125.4767 Z M102.2866,137.5547 L97.1976,137.5547 L111.4046,104.7907 L115.5696,104.7907 L129.6376,137.5547 L124.4556,137.5547 L121.1226,129.5037 L105.5736,129.5037 L102.2866,137.5547 Z" id="path-1"></path>
    </defs>
    <g id="_source/DolbyAudio----vertical" stroke="none" stroke-width="1" fill="none" fill-rule="evenodd">
        <mask id="mask-2" fill="white">
            <use xlink:href="#path-1"></use>
        </mask>
        <use id="Fill-1" fill="#000000" fill-rule="nonzero" xlink:href="#path-1"></use>
    </g>
</svg>