<?xml version="1.0" encoding="UTF-8"?>
<svg width="auto" height="auto" viewBox="0 0 42 31" version="1.1" xmlns="http://www.w3.org/2000/svg" xmlns:xlink="http://www.w3.org/1999/xlink">
    <title>US_TV_LearnTVG</title>
    <g id="US_TV_LearnTVG" stroke="none" stroke-width="1" fill="none" fill-rule="evenodd">
        <path d="M20.871,9.7098 C24.047,9.7098 26.599,10.3548 28.525,11.6428 C30.452,12.9308 31.557,14.5378 31.84,16.4638 L26.703,16.4638 L26.703,16.4658 C26.307,15.1008 25.34,14.1468 23.804,13.6038 C22.945,13.3048 21.99,13.1558 20.938,13.1558 C18.927,13.1558 17.274,13.7628 15.978,14.9768 C14.685,16.1908 14.037,18.0158 14.037,20.4518 C14.037,22.9068 14.738,24.6448 16.14,25.6638 C17.541,26.6848 19.134,27.1948 20.921,27.1948 C22.672,27.1948 24.108,26.7918 25.227,25.9868 C26.346,25.1838 27.036,24.1298 27.296,22.8258 L21.515,22.8258 L21.515,19.4898 L31.924,19.4898 L31.924,30.2188 L28.466,30.2188 L27.94,27.7228 C26.934,28.6678 26.03,29.3338 25.228,29.7208 C23.849,30.3968 22.153,30.7338 20.141,30.7338 C16.829,30.7338 14.117,29.8178 12.003,27.9818 C9.799,26.1388 8.697,23.6168 8.697,20.4178 C8.697,17.1838 9.81,14.5898 12.037,12.6378 C14.264,10.6858 17.208,9.7098 20.871,9.7098 Z M19.434,0 L19.434,1.416 L12.256,1.416 L12.256,7.997 L7.21,7.997 L7.21,1.416 L0,1.416 L0,0 L19.434,0 Z M25.9363,0 L31.1443,6.07 L36.4013,0 L41.6093,0 L33.4303,7.997 L28.6953,7.997 L20.5813,0 L25.9363,0 Z" id="Combined-Shape" fill="#000000"></path>
    </g>
</svg>