<?xml version="1.0" encoding="UTF-8"?>
<svg width="auto" height="auto" viewBox="0 0 42 31" version="1.1" xmlns="http://www.w3.org/2000/svg" xmlns:xlink="http://www.w3.org/1999/xlink">
    <title>US_TV_LearnTV14</title>
    <g id="US_TV_LearnTV14" stroke="none" stroke-width="1" fill="none" fill-rule="evenodd">
        <path d="M15.438,10.5523 L15.438,30.2193 L9.497,30.2193 L9.497,16.6563 L2.56,16.6563 L2.56,14.0243 C4.386,13.9703 5.665,13.8893 6.394,13.7803 C7.559,13.6083 8.506,13.2643 9.236,12.7503 C9.737,12.3963 10.116,11.9273 10.373,11.3393 C10.522,10.9863 10.596,10.7243 10.596,10.5523 L15.438,10.5523 Z M37.1296,10.6739 L37.1296,22.9619 L40.4666,22.9619 L40.4666,25.9869 L37.1296,25.9869 L37.1296,30.2189 L31.4536,30.2189 L31.4536,25.9869 L19.7756,25.9869 L19.7756,22.6099 L30.6196,10.6739 L37.1296,10.6739 Z M31.4536,14.4909 L24.0906,22.9629 L31.4536,22.9629 L31.4536,14.4909 Z M19.434,0 L19.434,1.416 L12.256,1.416 L12.256,7.997 L7.21,7.997 L7.21,1.416 L0,1.416 L0,0 L19.434,0 Z M25.9363,0 L31.1443,6.07 L36.4013,0 L41.6093,0 L33.4303,7.997 L28.6953,7.997 L20.5813,0 L25.9363,0 Z" id="Combined-Shape" fill="#000000"></path>
    </g>
</svg>