<?xml version="1.0" encoding="UTF-8"?>
<svg width="auto" height="auto" viewBox="0 0 47 31" version="1.1" xmlns="http://www.w3.org/2000/svg" xmlns:xlink="http://www.w3.org/1999/xlink">
    <title>US_TV_LearnTVMA</title>
    <g id="US_TV_LearnTVMA" stroke="none" stroke-width="1" fill="none" fill-rule="evenodd">
        <path d="M37.9077,10.2261 L46.2187,30.2191 L40.8967,30.2191 L39.3467,26.1091 L30.6957,26.1091 L29.1027,30.2191 L23.9677,30.2191 L32.3537,10.2261 L37.9077,10.2261 Z M7.143,10.2266 L11.419,25.9476 L15.664,10.2266 L22.727,10.2266 L22.727,30.2186 L18.153,30.2186 L18.1539375,16.3756 C18.1558125,16.02535 18.1605,15.58735 18.168,15.0616 C18.17625,14.53585 18.181125,14.1006625 18.1830469,13.7556156 L18.184,13.4406 L18.184,13.4406 L13.733,30.2186 L8.962,30.2186 L4.542,13.4406 C4.542,13.8206 4.548,14.3606 4.559,15.0616 C4.569,15.7616 4.574,16.3076 4.574,16.6966 L4.574,30.2186 L0,30.2186 L0,10.2266 L7.143,10.2266 Z M35.0797,14.7981 L32.0307,22.6641 L38.0477,22.6641 L35.0797,14.7981 Z M20.2334,0 L20.2334,1.416 L13.0554,1.416 L13.0554,7.997 L8.0094,7.997 L8.0094,1.416 L0.7994,1.416 L0.7994,0 L20.2334,0 Z M26.7357,0 L31.9437,6.07 L37.2007,0 L42.4087,0 L34.2297,7.997 L29.4947,7.997 L21.3807,0 L26.7357,0 Z" id="Combined-Shape" fill="#000000"></path>
    </g>
</svg>