<?xml version="1.0" encoding="UTF-8"?>
<svg width="auto" height="auto" viewBox="0 0 42 31" version="1.1" xmlns="http://www.w3.org/2000/svg" xmlns:xlink="http://www.w3.org/1999/xlink">
    <title>US_TV_LearnTVY7</title>
    <g id="US_TV_LearnTVY7" stroke="none" stroke-width="1" fill="none" fill-rule="evenodd">
        <path d="M6.2741,10.2266 L11.4621,18.9346 L16.4301,10.2266 L22.3471,10.2266 L13.9891,22.7226 L13.9891,30.2186 L8.7661,30.2186 L8.7661,22.7226 L0.1191,10.2266 L6.2741,10.2266 Z M40.9965,10.81 L40.9965,13.834 C40.2715,14.403 39.2645,15.419 37.9735,16.88 C36.6835,18.341 35.6005,19.848 34.7285,21.403 C34.0385,22.624 33.4145,24.115 32.8605,25.879 C32.3065,27.642 32.0285,29.089 32.0285,30.219 L27.0105,30.219 C27.1565,26.692 28.6045,23.026 31.3535,19.219 C33.1305,16.859 34.6165,15.214 35.8165,14.282 L23.5675,14.282 L23.6355,10.81 L40.9965,10.81 Z M19.435,0 L19.435,1.416 L12.257,1.416 L12.257,7.997 L7.211,7.997 L7.211,1.416 L0,1.416 L0,0 L19.435,0 Z M25.9368,0 L31.1448,6.07 L36.4018,0 L41.6108,0 L33.4308,7.997 L28.6958,7.997 L20.5828,0 L25.9368,0 Z" id="Combined-Shape" fill="#000000"></path>
    </g>
</svg>