<?xml version="1.0" encoding="UTF-8"?>
<svg width="auto" height="auto" viewBox="0 0 42 31" version="1.1" xmlns="http://www.w3.org/2000/svg" xmlns:xlink="http://www.w3.org/1999/xlink">
    <title>US_TV_LearnTVPG</title>
    <g id="US_TV_LearnTVPG" stroke="none" stroke-width="1" fill="none" fill-rule="evenodd">
        <path d="M30.9335,9.7098 C33.9195,9.7098 36.3165,10.3548 38.1295,11.6428 C39.9395,12.9308 40.9785,14.5378 41.2445,16.4638 L36.4155,16.4638 L36.4155,16.4658 C36.0445,15.1008 35.1355,14.1468 33.6905,13.6038 C32.8835,13.3048 31.9855,13.1558 30.9965,13.1558 C29.1055,13.1558 27.5525,13.7628 26.3365,14.9768 C25.1195,16.1908 24.5115,18.0158 24.5115,20.4518 C24.5115,22.9068 25.1695,24.6448 26.4875,25.6638 C27.8045,26.6848 29.3025,27.1948 30.9815,27.1948 C32.6285,27.1948 33.9775,26.7918 35.0295,25.9868 C36.0815,25.1838 36.7285,24.1298 36.9745,22.8258 L31.5405,22.8258 L31.5405,19.4898 L41.3245,19.4898 L41.3245,30.2188 L38.0735,30.2188 L37.5795,27.7228 C36.6345,28.6678 35.7835,29.3338 35.0295,29.7208 C33.7325,30.3968 32.1395,30.7338 30.2485,30.7338 C27.1355,30.7338 24.5855,29.8178 22.5985,27.9818 C20.5265,26.1388 19.4905,23.6168 19.4905,20.4178 C19.4905,17.1838 20.5365,14.5898 22.6305,12.6378 C24.7235,10.6858 27.4905,9.7098 30.9335,9.7098 Z M10.6823,10.2263 C13.0073,10.2263 14.8623,10.7423 16.2443,11.7733 C17.6263,12.8033 18.3173,14.4003 18.3173,16.5613 C18.3173,18.9203 17.6293,20.5893 16.2553,21.5653 C14.8803,22.5423 12.9153,23.0303 10.3643,23.0303 L5.4723,23.0303 L5.4723,30.2183 L0.5953,30.2183 L0.5953,10.2263 L10.6823,10.2263 Z M9.8963,13.6993 L5.4723,13.6993 L5.4723,19.5863 L9.8963,19.5863 C11.0163,19.5863 11.8863,19.3453 12.5083,18.8673 C13.1303,18.3883 13.4423,17.6293 13.4423,16.5893 C13.4423,15.5483 13.1303,14.8063 12.5083,14.3633 C11.8863,13.9203 11.0163,13.6993 9.8963,13.6993 Z M19.435,0 L19.435,1.416 L12.256,1.416 L12.256,7.997 L7.211,7.997 L7.211,1.416 L-2.84217094e-14,1.416 L-2.84217094e-14,0 L19.435,0 Z M25.9368,0 L31.1448,6.07 L36.4018,0 L41.6098,0 L33.4308,7.997 L28.6958,7.997 L20.5818,0 L25.9368,0 Z" id="Combined-Shape" fill="#000000"></path>
    </g>
</svg>