<?xml version="1.0" encoding="UTF-8"?>
<svg width="auto" height="auto" viewBox="0 0 50 50" version="1.1" xmlns="http://www.w3.org/2000/svg" xmlns:xlink="http://www.w3.org/1999/xlink">
    <title>BR_TV_Learn14</title>
    <g id="BR_TV_Learn14" stroke="none" stroke-width="1" fill="none" fill-rule="evenodd">
        <path d="M45.714,50 L4.286,50 C1.919,50 0,48.081 0,45.714 L0,4.286 C0,1.919 1.919,0 4.286,0 L45.714,0 C48.081,0 50,1.919 50,4.286 L50,45.714 C50,48.081 48.081,50 45.714,50" id="Fill-1" fill="#F4811F"></path>
        <path d="M37.2665,12.7644 L37.2665,27.3784 L40.0565,27.3784 L40.0565,30.8334 L37.2665,30.8334 L37.2665,35.9144 L32.8815,35.9144 L32.8815,30.8334 L26.6045,30.8334 L26.6045,26.8804 L30.9225,12.7644 L37.2665,12.7644 Z M20.4933,12.6929 L20.4933,35.8429 L16.0103,35.8429 L16.0103,18.6379 C15.2573,19.4359 14.3383,20.0229 13.2533,20.3989 L13.2533,16.2469 C14.8693,15.3389 15.9763,14.1539 16.5743,12.6929 L20.4933,12.6929 Z M33.2815,16.1514 L32.9815,16.1514 L30.0255,27.3784 L33.0155,27.3784 L33.2815,16.1514 Z" id="Combined-Shape" fill="#FFFFFF"></path>
    </g>
</svg>