<?xml version="1.0" encoding="UTF-8"?>
<svg width="auto" height="auto" viewBox="0 0 50 50" version="1.1" xmlns="http://www.w3.org/2000/svg" xmlns:xlink="http://www.w3.org/1999/xlink">
    <title>BR_TV_Learn18</title>
    <g id="BR_TV_Learn18" stroke="none" stroke-width="1" fill="none" fill-rule="evenodd">
        <path d="M45.7145,50 L4.2855,50 C1.9185,50 -0.0005,48.081 -0.0005,45.714 L-0.0005,4.286 C-0.0005,1.919 1.9185,0 4.2855,0 L45.7145,0 C48.0805,0 49.9995,1.919 49.9995,4.286 L49.9995,45.714 C49.9995,48.081 48.0805,50 45.7145,50" id="Fill-1" fill="#120C0E"></path>
        <path d="M32.4088,12.6133 C34.4448,12.6133 35.9068,13.0613 36.7928,13.9583 C37.6788,14.8553 38.1208,16.3003 38.1208,18.2933 L38.1208,19.6213 C38.1208,20.6843 37.8548,21.5973 37.3238,22.3623 C36.7928,23.1253 36.0288,23.6523 35.0318,23.9393 C37.1798,24.5593 38.2548,26.1433 38.2548,28.6893 L38.2548,30.8473 C38.2548,32.8633 37.7948,34.3133 36.8758,35.1983 C35.9568,36.0853 34.4568,36.5273 32.3748,36.5273 C30.2938,36.5273 28.8048,36.0793 27.9078,35.1823 C27.0118,34.2853 26.5628,32.8413 26.5628,30.8473 L26.5628,28.6893 C26.5628,26.1433 27.6368,24.5593 29.7848,23.9393 C28.7878,23.6523 28.0178,23.1253 27.4758,22.3623 C26.9338,21.5973 26.6628,20.6843 26.6628,19.6213 L26.6628,18.2933 C26.6628,16.3003 27.1108,14.8553 28.0078,13.9583 C28.9038,13.0613 30.3708,12.6133 32.4088,12.6133 Z M20.0192,12.6929 L20.0192,35.8429 L15.5362,35.8429 L15.5362,18.6379 C14.7832,19.4359 13.8642,20.0229 12.7792,20.3989 L12.7792,16.2469 C14.3952,15.3389 15.5022,14.1539 16.1002,12.6929 L20.0192,12.6929 Z M32.4088,25.7663 C31.8768,25.7663 31.5338,25.9883 31.3788,26.4303 C31.2238,26.8733 31.1458,27.5933 31.1458,28.5893 L31.1458,30.8143 C31.1458,31.7893 31.2128,32.5093 31.3458,32.9733 C31.4778,33.4383 31.8328,33.6713 32.4088,33.6713 C32.9178,33.6713 33.2558,33.4443 33.4218,32.9903 C33.5878,32.5363 33.6708,31.8113 33.6708,30.8143 L33.6708,28.5893 C33.6708,27.6153 33.6038,26.9013 33.4718,26.4473 C33.3388,25.9933 32.9838,25.7663 32.4088,25.7663 Z M32.3748,15.4693 C31.8878,15.4693 31.5778,15.7013 31.4448,16.1643 C31.3118,16.6273 31.2458,17.3433 31.2458,18.3123 L31.2458,19.4693 C31.2458,20.4393 31.3068,21.1553 31.4288,21.6173 C31.5508,22.0813 31.8768,22.3123 32.4088,22.3123 C32.8948,22.3123 33.2058,22.0863 33.3388,21.6343 C33.4718,21.1833 33.5378,20.4613 33.5378,19.4693 L33.5378,18.3123 C33.5378,17.3433 33.4718,16.6273 33.3388,16.1643 C33.2058,15.7013 32.8848,15.4693 32.3748,15.4693 Z" id="Combined-Shape" fill="#FFFFFF"></path>
    </g>
</svg>