<?xml version="1.0" encoding="UTF-8"?>
<svg width="auto" height="auto" viewBox="0 0 50 50" version="1.1" xmlns="http://www.w3.org/2000/svg" xmlns:xlink="http://www.w3.org/1999/xlink">
    <title>BR_TV_Learn16</title>
    <g id="BR_TV_Learn16" stroke="none" stroke-width="1" fill="none" fill-rule="evenodd">
        <path d="M45.714,50 L4.286,50 C1.919,50 0,48.081 0,45.714 L0,4.286 C0,1.919 1.919,0 4.286,0 L45.714,0 C48.081,0 50,1.919 50,4.286 L50,45.714 C50,48.081 48.081,50 45.714,50" id="Fill-1" fill="#EA2227"></path>
        <path d="M32.5426,12.3462 C33.6486,12.3462 34.5736,12.4402 35.3146,12.6282 C36.0566,12.8162 36.6486,13.1372 37.0916,13.5912 C37.5346,14.0452 37.8446,14.6322 38.0216,15.3512 C38.1996,16.0712 38.2886,16.9622 38.2886,18.0252 L38.2886,18.2582 L33.6046,18.2582 L33.6046,18.0252 C33.6046,17.0622 33.5496,16.3512 33.4416,15.8912 C33.3326,15.4322 33.0266,15.2022 32.5256,15.2022 C32.0886,15.2022 31.7996,15.4322 31.6586,15.8912 C31.5156,16.3512 31.4456,17.0622 31.4456,18.0252 L31.4126,22.7082 C32.2086,21.6452 33.2606,21.1142 34.5676,21.1142 C35.9176,21.1142 36.8806,21.5412 37.4576,22.3932 C38.0336,23.2452 38.3216,24.5572 38.3216,26.3282 L38.3216,28.8202 C38.3216,30.1712 38.2326,31.3172 38.0546,32.2582 C37.8776,33.1992 37.5676,33.9682 37.1256,34.5662 C36.6816,35.1642 36.0896,35.5962 35.3486,35.8612 C34.6066,36.1272 33.6706,36.2602 32.5426,36.2602 C31.4126,36.2602 30.4706,36.1272 29.7186,35.8612 C28.9646,35.5962 28.3736,35.1642 27.9416,34.5662 C27.5096,33.9682 27.2056,33.1992 27.0286,32.2582 C26.8506,31.3172 26.7626,30.1712 26.7626,28.8202 L26.7626,19.7522 C26.7626,18.4022 26.8506,17.2562 27.0286,16.3152 C27.2056,15.3742 27.5146,14.6102 27.9586,14.0232 C28.4006,13.4362 28.9936,13.0102 29.7356,12.7442 C30.4766,12.4782 31.4126,12.3462 32.5426,12.3462 Z M20.2852,12.711 L20.2852,35.861 L15.8022,35.861 L15.8022,18.656 C15.0492,19.454 14.1302,20.041 13.0452,20.417 L13.0452,16.265 C14.6612,15.357 15.7682,14.172 16.3662,12.711 L20.2852,12.711 Z M32.5256,24.4692 C32.0886,24.4692 31.7996,24.7012 31.6586,25.1662 C31.5156,25.6312 31.4456,26.3512 31.4456,27.3252 L31.4456,30.5472 C31.4456,31.5212 31.5006,32.2412 31.6096,32.7062 C31.7176,33.1712 32.0236,33.4032 32.5256,33.4032 C32.9826,33.4032 33.2776,33.1712 33.4086,32.7062 C33.5396,32.2412 33.6046,31.5212 33.6046,30.5472 L33.6046,27.3252 C33.6046,26.3512 33.5496,25.6312 33.4416,25.1662 C33.3326,24.7012 33.0266,24.4692 32.5256,24.4692 Z" id="Combined-Shape" fill="#FFFFFF"></path>
    </g>
</svg>