<?xml version="1.0" encoding="UTF-8"?>
<svg width="auto" height="auto" viewBox="0 0 50 50" version="1.1" xmlns="http://www.w3.org/2000/svg" xmlns:xlink="http://www.w3.org/1999/xlink">
    <title>BR_TV_Learn10</title>
    <g id="BR_TV_Learn10" stroke="none" stroke-width="1" fill="none" fill-rule="evenodd">
        <path d="M45.714,50 L4.286,50 C1.919,50 0,48.081 0,45.714 L0,4.286 C0,1.919 1.919,0 4.286,0 L45.714,0 C48.081,0 50,1.919 50,4.286 L50,45.714 C50,48.081 48.081,50 45.714,50" id="Fill-1" fill="#2193D1"></path>
        <path d="M32.1746,12.3452 C33.3256,12.3452 34.2786,12.4782 35.0316,12.7442 C35.7836,13.0102 36.3816,13.4362 36.8246,14.0232 C37.2676,14.6102 37.5776,15.3742 37.7546,16.3152 C37.9316,17.2562 38.0206,18.4022 38.0206,19.7522 L38.0206,28.8202 C38.0206,30.1712 37.9316,31.3172 37.7546,32.2582 C37.5776,33.1992 37.2616,33.9682 36.8086,34.5662 C36.3546,35.1642 35.7506,35.5952 34.9986,35.8612 C34.2456,36.1272 33.3046,36.2602 32.1746,36.2602 C31.0236,36.2602 30.0706,36.1272 29.3186,35.8612 C28.5656,35.5952 27.9676,35.1642 27.5256,34.5662 C27.0816,33.9682 26.7726,33.1992 26.5946,32.2582 C26.4176,31.3172 26.3296,30.1712 26.3296,28.8202 L26.3296,19.7522 C26.3296,18.4022 26.4176,17.2562 26.5946,16.3152 C26.7726,15.3742 27.0816,14.6102 27.5256,14.0232 C27.9676,13.4362 28.5656,13.0102 29.3186,12.7442 C30.0706,12.4782 31.0236,12.3452 32.1746,12.3452 Z M20.0192,12.711 L20.0192,35.861 L15.5352,35.861 L15.5352,18.656 C14.7822,19.454 13.8632,20.041 12.7782,20.417 L12.7782,16.265 C14.3942,15.357 15.5022,14.172 16.1002,12.711 L20.0192,12.711 Z M32.1746,15.2022 C31.6876,15.2022 31.3726,15.4342 31.2286,15.8982 C31.0846,16.3622 31.0126,17.0802 31.0126,18.0532 L31.0126,30.5522 C31.0126,31.5252 31.0736,32.2432 31.1946,32.7072 C31.3166,33.1712 31.6436,33.4032 32.1746,33.4032 C32.6616,33.4032 32.9776,33.1772 33.1216,32.7242 C33.2656,32.2712 33.3376,31.5472 33.3376,30.5522 L33.3376,18.0532 C33.3376,17.0802 33.2716,16.3622 33.1386,15.8982 C33.0056,15.4342 32.6846,15.2022 32.1746,15.2022 Z" id="Combined-Shape" fill="#FFFFFF"></path>
    </g>
</svg>