<?xml version="1.0" encoding="UTF-8"?>
<svg width="auto" height="auto" viewBox="0 0 50 50" version="1.1" xmlns="http://www.w3.org/2000/svg" xmlns:xlink="http://www.w3.org/1999/xlink">
    <title>BR_TV_Learn12 </title>
    <g id="BR_TV_Learn12-" stroke="none" stroke-width="1" fill="none" fill-rule="evenodd">
        <path d="M45.714,50 L4.285,50 C1.918,50 -4.97379915e-14,48.081 -4.97379915e-14,45.714 L-4.97379915e-14,4.286 C-4.97379915e-14,1.919 1.918,0 4.285,0 L45.714,0 C48.081,0 50,1.919 50,4.286 L50,45.714 C50,48.081 48.081,50 45.714,50" id="Fill-1" fill="#FCCB0F"></path>
        <path d="M32.6505,12.6137 C33.7795,12.6137 34.7145,12.7237 35.4565,12.9457 C36.1985,13.1667 36.7955,13.5267 37.2505,14.0247 C37.7035,14.5227 38.0195,15.1707 38.1965,15.9677 C38.3735,16.7647 38.4625,17.7397 38.4625,18.8907 L38.4625,19.2227 C38.4625,20.4187 38.2845,21.4757 37.9315,22.3947 C37.5765,23.3137 37.0675,24.2497 36.4035,25.2017 L31.1885,32.6087 L38.8605,32.6087 L38.8605,36.1287 L26.4395,36.1287 L26.4395,31.8107 L31.8525,23.9397 C32.4945,23.0097 32.9765,22.1457 33.2975,21.3487 C33.6185,20.5517 33.7795,19.8437 33.7795,19.2227 L33.7795,18.3017 C33.7795,17.3357 33.7125,16.6217 33.5805,16.1607 C33.4475,15.7007 33.1265,15.4697 32.6165,15.4697 C32.1295,15.4697 31.8195,15.7007 31.6865,16.1607 C31.5535,16.6217 31.4875,17.3357 31.4875,18.3017 L31.4875,19.2227 L26.8045,19.2227 L26.8045,18.8907 C26.8045,17.7397 26.8985,16.7647 27.0865,15.9677 C27.2745,15.1707 27.5955,14.5227 28.0495,14.0247 C28.5035,13.5267 29.1015,13.1667 29.8435,12.9457 C30.5855,12.7237 31.5205,12.6137 32.6505,12.6137 Z M20.4943,12.6929 L20.4943,35.8429 L16.0103,35.8429 L16.0103,18.6379 C15.2573,19.4359 14.3383,20.0229 13.2533,20.3989 L13.2533,16.2469 C14.8693,15.3389 15.9773,14.1539 16.5753,12.6929 L20.4943,12.6929 Z" id="Combined-Shape" fill="#FFFFFF"></path>
    </g>
</svg>