<?xml version="1.0" encoding="UTF-8"?>
<svg width="auto" height="auto" viewBox="0 0 52 53" version="1.1" xmlns="http://www.w3.org/2000/svg" xmlns:xlink="http://www.w3.org/1999/xlink">
    <title>NZ_Movies_Learn16</title>
    <defs>
        <path d="M36.8265535,34.84895 C36.1745835,35.62418 35.3596135,36.01129 34.3806435,36.01129 C33.3649935,36.01129 32.4624235,35.53861 31.6719035,34.59121 C30.8813935,33.64484 30.4861335,32.30218 30.4861335,30.56122 C30.4861335,28.9863 30.8375835,27.79543 31.5404935,26.98862 C32.2423835,26.1818 33.1011435,25.7784 34.1178135,25.7784 C35.1711535,25.7784 36.0492835,26.20116 36.7511735,27.04567 C37.4540735,27.89017 37.8045135,29.2206 37.8045135,31.03797 C37.8045135,32.80339 37.4785235,34.07371 36.8265535,34.84895 L36.8265535,34.84895 Z M30.0348435,23.39635 C30.2355335,20.18233 30.7214535,18.0675 31.4936335,17.05083 C32.2647935,16.03518 33.2081135,15.52685 34.3246135,15.52685 C35.1650435,15.52685 35.8485935,15.78051 36.3752635,16.28884 C36.9019335,16.79718 37.2279235,17.58463 37.3532235,18.65224 L42.4701835,18.07973 C42.0942735,15.81922 41.2192135,14.09455 39.8459935,12.90674 C38.4727835,11.71893 36.7389435,11.12503 34.6444835,11.12503 C31.6596835,11.12503 29.2331235,12.25579 27.3638035,14.5163 C25.4954935,16.77782 24.5613435,20.46859 24.5613435,25.5886 C24.5613435,30.58026 25.4578035,34.17323 27.2507235,36.36446 C29.0446635,38.5557 31.3336935,39.65182 34.1178135,39.65182 C36.7134735,39.65182 38.8395135,38.78694 40.4949135,37.05922 C42.1503035,35.3315 42.9785135,33.03941 42.9785135,30.18092 C42.9785135,27.48747 42.1910535,25.2891 40.6171535,23.58786 C39.0432535,21.88459 37.1525335,21.03397 34.9450035,21.03397 C32.9890935,21.03397 31.3520335,21.82143 30.0348435,23.39635 Z M13.3454035,15.8501 C11.7276935,17.12653 10.2291825,17.99447 8.8488375,18.45187 L8.8488375,23.31109 C11.4709835,22.43399 13.7467735,21.08115 15.6782335,19.25155 L15.6782335,39.4321 L20.9642935,39.4321 L20.9642935,11.38206 L16.6755435,11.38206 C16.0734935,13.08431 14.9631035,14.57366 13.3454035,15.8501 L13.3454035,15.8501 Z" id="path-1"></path>
    </defs>
    <g id="---SOURCE---" stroke="none" stroke-width="1" fill="none" fill-rule="evenodd">
        <g id="NZ_Movies_Learn16" transform="translate(0.000000, 0.833683)">
            <polygon id="Fill-1" fill="#F11322" points="0 0 51.8338835 0 51.8338835 51.8338835 0 51.8338835"></polygon>
            <mask id="mask-2" fill="white">
                <use xlink:href="#path-1"></use>
            </mask>
            <use id="Clip-5" fill="#000000" xlink:href="#path-1"></use>
        </g>
    </g>
</svg>