<?xml version="1.0" encoding="UTF-8"?>
<svg width="auto" height="auto" viewBox="0 0 53 52" version="1.1" xmlns="http://www.w3.org/2000/svg" xmlns:xlink="http://www.w3.org/1999/xlink">
    <title>NZ_Movies_Learn15</title>
    <defs>
        <path d="M41.5845035,12.38609 L41.5845035,17.30356 L31.7284035,17.30356 L30.9106735,21.96021 C32.0758435,21.3741 33.2661835,21.08105 34.4807035,21.08105 C36.7989535,21.08105 38.7647335,21.92899 40.3760335,23.62388 C41.9873335,25.31977 42.7939835,27.52019 42.7939835,30.22516 C42.7939835,32.48097 42.1424235,34.49509 40.8412935,36.26551 C39.0678635,38.68346 36.6076135,39.89294 33.4575335,39.89294 C30.9408835,39.89294 28.8895035,39.21317 27.3023735,37.85465 C25.7152435,36.49612 24.7665935,34.66932 24.4574235,32.37523 L24.4574235,32.37523 L29.6639335,31.83343 C29.8129735,33.01774 30.2530635,33.95531 30.9841835,34.64716 C31.7163235,35.34002 32.5592335,35.68544 33.5139235,35.68544 C34.6045735,35.68544 35.5280435,35.23931 36.2843435,34.34806 C37.0406535,33.45682 37.4193035,32.1134 37.4193035,30.31881 C37.4193035,28.63602 37.0436735,27.37316 36.2944235,26.53227 C35.5441535,25.69036 34.5673135,25.26941 33.3648835,25.26941 C31.8653635,25.26941 30.5199335,25.93709 29.3295835,27.27044 L29.3295835,27.27044 L25.0888535,26.65311 L27.7676335,12.38609 L41.5845035,12.38609 Z M20.9642935,11.38206 L20.9642935,39.4321 L15.6782335,39.4321 L15.6782335,19.25155 C13.7467735,21.08115 11.4709835,22.43399 8.8488375,23.31109 L8.8488375,23.31109 L8.8488375,18.45187 C10.2291825,17.99447 11.7276935,17.12653 13.3454035,15.8501 C14.9631035,14.57366 16.0734935,13.08431 16.6755435,11.38206 L16.6755435,11.38206 L20.9642935,11.38206 Z" id="path-1"></path>
    </defs>
    <g id="---SOURCE---" stroke="none" stroke-width="1" fill="none" fill-rule="evenodd">
        <g id="NZ_Movies_Learn15" transform="translate(0.501651, -0.000200)">
            <polygon id="Fill-1" fill="#F11322" points="0 0 51.8338835 0 51.8338835 51.8338835 0 51.8338835"></polygon>
            <mask id="mask-2" fill="white">
                <use xlink:href="#path-1"></use>
            </mask>
            <use id="Combined-Shape" fill="#000000" xlink:href="#path-1"></use>
        </g>
    </g>
</svg>