<?xml version="1.0" encoding="UTF-8"?>
<svg width="auto" height="auto" viewBox="0 0 50 50" version="1.1" xmlns="http://www.w3.org/2000/svg" xmlns:xlink="http://www.w3.org/1999/xlink">
    <title>NZ_Movies_LearnG</title>
    <g id="---SOURCE---" stroke="none" stroke-width="1" fill="none" fill-rule="evenodd">
        <g id="NZ_Movies_LearnG">
            <path d="M50,25 C50,38.808 38.807,50 25,50 C11.193,50 0,38.808 0,25 C0,11.193 11.193,0 25,0 C38.807,0 50,11.193 50,25" id="Fill-1" fill="#00954E"></path>
            <path d="M29.1352,39.6631 C27.6672,40.2811 26.1842,40.5911 24.6872,40.5911 C22.3262,40.5911 20.2032,40.1811 18.3182,39.3601 C16.4322,38.5401 14.8422,37.4111 13.5462,35.9711 C12.2512,34.5311 11.2582,32.8401 10.5672,30.8971 C9.8762,28.9541 9.5312,26.8591 9.5312,24.6141 C9.5312,22.3111 9.8762,20.1741 10.5672,18.2011 C11.2582,16.2301 12.2512,14.5101 13.5462,13.0411 C14.8422,11.5731 16.4322,10.4221 18.3182,9.5871 C20.2032,8.7521 22.3262,8.3351 24.6872,8.3351 C26.2702,8.3351 27.8032,8.5721 29.2862,9.0471 C30.7682,9.5221 32.1072,10.2211 33.3022,11.1421 C34.4962,12.0621 35.4832,13.2001 36.2602,14.5531 C37.0372,15.9061 37.5122,17.4611 37.6852,19.2161 L31.2082,19.2161 C30.8042,17.4891 30.0272,16.1931 28.8762,15.3301 C27.7242,14.4661 26.3282,14.0341 24.6872,14.0341 C23.1612,14.0341 21.8652,14.3301 20.8012,14.9201 C19.7362,15.5101 18.8722,16.3021 18.2102,17.2951 C17.5472,18.2881 17.0662,19.4181 16.7632,20.6841 C16.4612,21.9511 16.3102,23.2611 16.3102,24.6141 C16.3102,25.9091 16.4612,27.1691 16.7632,28.3921 C17.0662,29.6161 17.5472,30.7181 18.2102,31.6961 C18.8722,32.6751 19.7362,33.4601 20.8012,34.0491 C21.8652,34.6401 23.1612,34.9341 24.6872,34.9341 C26.9322,34.9341 28.6672,34.3661 29.8902,33.2281 C31.1142,32.0921 31.8262,30.4431 32.0282,28.2841 L25.2052,28.2841 L25.2052,23.2321 L38.1602,23.2321 L38.1602,39.9001 L33.8422,39.9001 L33.1512,36.4021 C31.9422,37.9571 30.6032,39.0441 29.1352,39.6631" id="Fill-4" fill="#000000"></path>
        </g>
    </g>
</svg>