<?xml version="1.0" encoding="UTF-8"?>
<svg width="auto" height="auto" viewBox="0 0 53 52" version="1.1" xmlns="http://www.w3.org/2000/svg" xmlns:xlink="http://www.w3.org/1999/xlink">
    <title>NZ_Movies_Learn13</title>
    <defs>
        <path d="M34.5763035,10.89229 C37.1883635,10.89229 39.2819035,11.74589 40.8589735,13.45516 C42.1583435,14.85392 42.8080235,16.43305 42.8080235,18.19355 C42.8080235,20.69186 41.4768935,22.686 38.8156535,24.17494 C40.4050135,24.52438 41.6756935,25.30728 42.6287035,26.52467 C43.5806835,27.74103 44.0571835,29.2105 44.0571835,30.93309 C44.0571835,33.4314 43.1677135,35.56081 41.3887635,37.3213 C39.6098235,39.0818 37.3963835,39.96205 34.7474435,39.96205 C32.2358035,39.96205 30.1545635,39.22117 28.5026835,37.7394 C26.8497835,36.2566 25.8906235,34.3178 25.6262435,31.92299 L25.6262435,31.92299 L30.7735035,31.28252 C30.9374635,32.62903 31.3781035,33.65787 32.0974635,34.37006 C32.8168335,35.08225 33.6868335,35.43784 34.7095235,35.43784 C35.8070135,35.43784 36.7303035,35.01052 37.4814435,34.15589 C38.2315435,33.30228 38.6076235,32.14945 38.6076235,30.69945 C38.6076235,29.32732 38.2479435,28.24008 37.5285735,27.43668 C36.8092135,26.63431 35.9330635,26.23262 34.8980735,26.23262 C34.2166235,26.23262 33.4029835,26.36891 32.4571535,26.64046 L32.4571535,26.64046 L33.0433035,22.19412 C34.4820335,22.23306 35.5795235,21.91232 36.3368035,21.23292 C37.0930635,20.55352 37.4722135,19.6497 37.4722135,18.52351 C37.4722135,17.56538 37.1945135,16.80195 36.6391035,16.2322 C36.0836935,15.66244 35.3458835,15.37757 34.4256735,15.37757 C33.5167235,15.37757 32.7410035,15.70138 32.0974635,16.34902 C31.4539335,16.99563 31.0635035,17.94146 30.9241435,19.18447 L30.9241435,19.18447 L26.0228235,18.32984 C26.3640535,16.60725 26.8774535,15.23205 27.5660735,14.20322 C28.2526535,13.17335 29.2118035,12.36484 30.4414935,11.77561 C31.6722035,11.18639 33.0504735,10.89229 34.5763035,10.89229 Z M20.9642935,11.38206 L20.9642935,39.4321 L15.6782335,39.4321 L15.6782335,19.25155 C13.7467735,21.08115 11.4709835,22.43399 8.8488375,23.31109 L8.8488375,23.31109 L8.8488375,18.45187 C10.2291825,17.99447 11.7276935,17.12653 13.3454035,15.8501 C14.9631035,14.57366 16.0734935,13.08431 16.6755435,11.38206 L16.6755435,11.38206 L20.9642935,11.38206 Z" id="path-1"></path>
    </defs>
    <g id="---SOURCE---" stroke="none" stroke-width="1" fill="none" fill-rule="evenodd">
        <g id="NZ_Movies_Learn13" transform="translate(0.833884, -0.000200)">
            <polygon id="Fill-1" fill="#F11322" points="0 0 51.8338835 0 51.8338835 51.8338835 0 51.8338835"></polygon>
            <mask id="mask-2" fill="white">
                <use xlink:href="#path-1"></use>
            </mask>
            <use id="Combined-Shape" fill="#000000" xlink:href="#path-1"></use>
        </g>
    </g>
</svg>