<?xml version="1.0" encoding="UTF-8"?>
<svg width="auto" height="auto" viewBox="0 0 53 52" version="1.1" xmlns="http://www.w3.org/2000/svg" xmlns:xlink="http://www.w3.org/1999/xlink">
    <title>NZ_Movies_LearnRP16</title>
    <defs>
        <path d="M41.8411335,12.10352 C41.5410035,12.5305 41.1264735,12.84536 40.5975535,13.04583 C40.0686335,13.24743 39.0187235,13.3471 37.4500935,13.3471 L35.2721235,13.3471 L35.2721235,7.90161 L37.1952535,7.90161 C38.6291135,7.90161 39.5838835,7.94465 40.0595735,8.03186 C40.7051535,8.14512 41.2374635,8.4294 41.6599235,8.88243 C42.0812435,9.3366 42.2919035,9.91196 42.2919035,10.61076 C42.2919035,11.17819 42.1424035,11.67653 41.8411335,12.10352 L41.8411335,12.10352 Z M45.2502235,6.82112 C44.4891235,5.85729 43.5422835,5.23097 42.4130935,4.94216 C41.6780435,4.75075 40.0992135,4.65448 37.6788735,4.65448 L31.2910735,4.65448 L31.2910735,23.84619 L35.2721235,23.84619 L35.2721235,16.60669 L37.8668835,16.60669 C39.6699635,16.60669 41.0460635,16.51495 41.9963035,16.33147 C42.6951035,16.1831 43.3825835,15.87956 44.0598735,15.422 C44.7371635,14.9633 45.2955335,14.33358 45.7349735,13.53058 C46.1732835,12.72757 46.3930035,11.73656 46.3930035,10.55866 C46.3930035,9.03194 46.0124535,7.78496 45.2502235,6.82112 L45.2502235,6.82112 Z M12.9839135,13.09113 L10.0391875,13.09113 L10.0391875,8.221 L13.1447435,8.221 C14.7586835,8.221 15.7270435,8.24252 16.0498335,8.28669 C16.6954135,8.39089 17.1948835,8.64233 17.5493835,9.03873 C17.9038835,9.43627 18.0805635,9.95726 18.0805635,10.60397 C18.0805635,11.17932 17.9457835,11.65954 17.6773635,12.04349 C17.4078035,12.42744 17.0363135,12.69812 16.5617635,12.85555 C16.0860735,13.01185 14.8934635,13.09113 12.9839135,13.09113 L12.9839135,13.09113 Z M33.6278635,27.25674 C35.0670035,27.25674 36.2583635,27.66482 37.2019235,28.48099 C38.1454835,29.29716 38.7467635,30.48221 39.0050535,32.03545 L39.0050535,32.03545 L35.4890935,32.42883 C35.4029935,31.69526 35.1790035,31.15418 34.8171135,30.8049 C34.4552335,30.45561 33.9855435,30.28132 33.4080735,30.28132 C32.6409035,30.28132 31.9927235,30.63061 31.4628435,31.32848 C30.9322735,32.02705 30.5983835,33.48019 30.4604835,35.68861 C31.3655535,34.60645 32.4904035,34.06537 33.8343535,34.06537 C35.3511935,34.06537 36.6503435,34.64985 37.7318035,35.8202 C38.8132535,36.98915 39.3543335,38.4997 39.3543335,40.35042 C39.3543335,42.314545 38.7852635,43.889483 37.6478035,45.076636 C36.5103535,46.26379 35.0495035,46.858066 33.2659735,46.858066 C31.3529535,46.858066 29.7801135,46.104896 28.5474635,44.599255 C27.3155135,43.093614 26.6995335,40.62481 26.6995335,37.19495 C26.6995335,33.67689 27.3414135,31.14089 28.6251635,29.58695 C29.9096135,28.03371 31.5769435,27.25674 33.6278635,27.25674 Z M33.2659735,36.77566 C32.5674035,36.77566 31.9773235,37.05285 31.4950435,37.60723 C31.0120635,38.16161 30.7705735,38.97988 30.7705735,40.06203 C30.7705735,41.258287 31.0421635,42.18085 31.5853435,42.831125 C32.1285235,43.482099 32.7486935,43.806886 33.4465735,43.806886 C34.1192435,43.806886 34.6792235,43.540897 35.1272035,43.008218 C35.5751835,42.475539 35.7991735,41.602673 35.7991735,40.38962 C35.7991735,39.14087 35.5583835,38.22671 35.0754035,37.64643 C34.5931235,37.06615 33.9897435,36.77566 33.2659735,36.77566 Z M14.4358935,4.97387 C16.5425135,4.97387 18.0737735,5.14602 19.0285435,5.49146 C19.9833135,5.8369 20.7478135,6.4485 21.3220335,7.33079 C21.8951235,8.21194 22.1828035,9.22108 22.1828035,10.3548 C22.1828035,11.79432 21.7467535,12.98467 20.8780535,13.92245 C20.0082335,14.86024 18.7080235,15.45145 16.9774235,15.69609 C17.8381935,16.18536 18.5494535,16.72221 19.1100835,17.30663 C19.6695835,17.89104 20.4250235,18.92962 21.3752635,20.42124 L21.3752635,20.42124 L23.7831435,24.16558 L19.0217435,24.16558 L16.1438435,19.98973 C15.1222435,18.49698 14.4223035,17.55693 14.0462835,17.16845 C13.6691335,16.7811 13.2715935,16.51381 12.8491435,16.36998 C12.4278135,16.22614 11.7595935,16.15365 10.8455905,16.15365 L10.8455905,16.15365 L10.0391875,16.15365 L10.0391875,24.16558 L6.0581395,24.16558 L6.0581395,4.97387 L14.4358935,4.97387 Z M12.6402735,32.09483 L12.6402735,35.43257 C14.5135735,34.83003 16.1411035,33.90131 17.5217335,32.64414 L17.5217335,46.508151 L21.3000435,46.508151 L21.3000435,27.23716 L18.2341335,27.23716 C17.8037435,28.40599 17.0109335,29.42985 15.8545635,30.30874 C14.6970535,31.1831 13.6267635,31.77997 12.6402735,32.09483 Z" id="path-1"></path>
    </defs>
    <g id="---SOURCE---" stroke="none" stroke-width="1" fill="none" fill-rule="evenodd">
        <g id="NZ_Movies_LearnRP16" transform="translate(0.667767, -0.000200)">
            <polygon id="Fill-1" fill="#F11322" points="0 0 51.8338835 0 51.8338835 51.8338835 0 51.8338835"></polygon>
            <mask id="mask-2" fill="white">
                <use xlink:href="#path-1"></use>
            </mask>
            <use id="Clip-5" fill="#000000" xlink:href="#path-1"></use>
        </g>
    </g>
</svg>