<?xml version="1.0" encoding="UTF-8"?>
<svg width="auto" height="auto" viewBox="0 0 52 52" version="1.1" xmlns="http://www.w3.org/2000/svg" xmlns:xlink="http://www.w3.org/1999/xlink">
    <title>NZ_Movies_LearnRP13</title>
    <defs>
        <path d="M41.8411335,12.09325 C41.5410035,12.52023 41.1264735,12.83509 40.5975535,13.03556 C40.0686335,13.23716 39.0187235,13.33683 37.4500935,13.33683 L35.2721235,13.33683 L35.2721235,7.89134 L37.1952535,7.89134 C38.6291135,7.89134 39.5838835,7.93438 40.0595735,8.02159 C40.7051535,8.13485 41.2374635,8.41913 41.6599235,8.87217 C42.0812435,9.32633 42.2919035,9.90169 42.2919035,10.60049 C42.2919035,11.16792 42.1424035,11.66626 41.8411335,12.09325 L41.8411335,12.09325 Z M45.2502235,6.81085 C44.4891235,5.84702 43.5422835,5.2207 42.4130935,4.93189 C41.6780435,4.74048 40.0992135,4.64421 37.6788735,4.64421 L31.2910735,4.64421 L31.2910735,23.83592 L35.2721235,23.83592 L35.2721235,16.59642 L37.8668835,16.59642 C39.6699635,16.59642 41.0460635,16.50468 41.9963035,16.3212 C42.6951035,16.17283 43.3825835,15.8693 44.0598735,15.41173 C44.7371635,14.95303 45.2955335,14.32331 45.7349735,13.52031 C46.1732835,12.7173 46.3930035,11.72629 46.3930035,10.5484 C46.3930035,9.02167 46.0124535,7.77469 45.2502235,6.81085 L45.2502235,6.81085 Z M12.9839135,13.08086 L10.0391875,13.08086 L10.0391875,8.21073 L13.1447435,8.21073 C14.7586835,8.21073 15.7270435,8.23225 16.0498335,8.27642 C16.6954135,8.38062 17.1948835,8.63206 17.5493835,9.02846 C17.9038835,9.426 18.0805635,9.94699 18.0805635,10.5937 C18.0805635,11.16905 17.9457835,11.64927 17.6773635,12.03322 C17.4078035,12.41717 17.0363135,12.68786 16.5617635,12.84528 C16.0860735,13.00158 14.8934635,13.08086 12.9839135,13.08086 L12.9839135,13.08086 Z M19.1100835,17.29636 C18.5494535,16.71194 17.8381935,16.17509 16.9774235,15.68582 C18.7080235,15.44118 20.0082335,14.84997 20.8780535,13.91218 C21.7467535,12.9744 22.1828035,11.78405 22.1828035,10.34453 C22.1828035,9.21081 21.8951235,8.20167 21.3220335,7.32052 C20.7478135,6.43823 19.9833135,5.82663 19.0285435,5.4812 C18.0737735,5.13576 16.5425135,4.9636 14.4358935,4.9636 L6.0581395,4.9636 L6.0581395,24.15531 L10.0391875,24.15531 L10.0391875,16.14338 L10.8455905,16.14338 C11.7595935,16.14338 12.4278135,16.21587 12.8491435,16.35971 C13.2715935,16.50355 13.6691335,16.77084 14.0462835,17.15818 C14.4223035,17.54666 15.1222435,18.48671 16.1438435,19.97946 L19.0217435,24.15531 L23.7831435,24.15531 L21.3752635,20.41098 C20.4250235,18.91936 19.6695835,17.88077 19.1100835,17.29636 L19.1100835,17.29636 Z M39.0460035,32.14912 C39.0460035,30.96217 38.5839135,29.89753 37.6608535,28.95522 C36.5395935,27.80338 35.0513735,27.22689 33.1961935,27.22689 C32.1111735,27.22689 31.1314835,27.42509 30.2571235,27.8215 C29.3838935,28.22017 28.7020735,28.76495 28.2139335,29.46036 C27.7246535,30.15237 27.3599635,31.07996 27.1175835,32.24086 L30.6002935,32.81735 C30.6999635,31.97923 30.9774435,31.34159 31.4338835,30.90554 C31.8914435,30.47062 32.4430135,30.2509 33.0885935,30.2509 C33.7420935,30.2509 34.2664835,30.44344 34.6617535,30.82739 C35.0570335,31.21134 35.2529735,31.72667 35.2529735,32.37224 C35.2529735,33.13107 34.9845435,33.73927 34.4465635,34.19911 C33.9085835,34.65554 33.1282335,34.873 32.1066435,34.84581 L31.6898435,37.84377 C32.3626035,37.6603 32.9402235,37.56969 33.4249735,37.56969 C34.1588935,37.56969 34.7829435,37.84038 35.2937435,38.38062 C35.8045435,38.92087 36.0605035,39.65478 36.0605035,40.58011 C36.0605035,41.558665 35.7932135,42.334488 35.2597635,42.910975 C34.7274435,43.48633 34.0705435,43.774007 33.2901935,43.774007 C32.5642035,43.774007 31.9458135,43.535031 31.4338835,43.054814 C30.9230835,42.573464 30.6093535,41.88032 30.4927035,40.973116 L26.8355735,41.404633 C27.0235835,43.018571 27.7042635,44.325578 28.8787635,45.326786 C30.0532535,46.325729 31.5335535,46.824068 33.3173735,46.824068 C35.1997335,46.824068 36.7729035,46.231724 38.0368735,45.044771 C39.3008435,43.856686 39.9339535,42.422829 39.9339535,40.73754 C39.9339535,39.5755 39.5953135,38.58675 38.9180235,37.76563 C38.2407335,36.9445 37.3380635,36.41671 36.2077435,36.18114 C38.1002935,35.17766 39.0460035,33.83441 39.0460035,32.14912 Z M12.6612335,32.08456 L12.6612335,35.4223 C14.5345335,34.81976 16.1620635,33.89104 17.5426835,32.63387 L17.5426835,46.497882 L21.3210035,46.497882 L21.3210035,27.22689 L18.2550835,27.22689 C17.8247035,28.39572 17.0318835,29.41958 15.8755135,30.29847 C14.7180135,31.17283 13.6477135,31.7697 12.6612335,32.08456 Z" id="path-1"></path>
    </defs>
    <g id="---SOURCE---" stroke="none" stroke-width="1" fill="none" fill-rule="evenodd">
        <g id="NZ_Movies_LearnRP13" transform="translate(0.000000, -0.000200)">
            <polygon id="Fill-1" fill="#F11322" points="0 0 51.8338835 0 51.8338835 51.8338835 0 51.8338835"></polygon>
            <mask id="mask-2" fill="white">
                <use xlink:href="#path-1"></use>
            </mask>
            <use id="Clip-5" fill="#000000" xlink:href="#path-1"></use>
        </g>
    </g>
</svg>