<?xml version="1.0" encoding="UTF-8"?>
<svg width="auto" height="auto" viewBox="0 0 50 50" version="1.1" xmlns="http://www.w3.org/2000/svg" xmlns:xlink="http://www.w3.org/1999/xlink">
    <title>NZ_Movies_LearnPG</title>
    <g id="---SOURCE---" stroke="none" stroke-width="1" fill="none" fill-rule="evenodd">
        <g id="NZ_Movies_LearnPG">
            <path d="M50,25 C50,38.808 38.807,50 25,50 C11.193,50 0,38.808 0,25 C0,11.193 11.193,0 25,0 C38.807,0 50,11.193 50,25" id="Fill-1" fill="#FEF200"></path>
            <path d="M34.5813,14.4604 C35.6453,14.4604 36.6763,14.6204 37.6743,14.9394 C38.6703,15.2584 39.5713,15.7284 40.3743,16.3474 C41.1773,16.9674 41.8413,17.7324 42.3643,18.6414 C42.8863,19.5514 43.2063,20.5974 43.3223,21.7784 L38.9663,21.7784 C38.6953,20.6164 38.1723,19.7454 37.3983,19.1644 C36.6233,18.5844 35.6843,18.2934 34.5813,18.2934 C33.5543,18.2934 32.6833,18.4924 31.9673,18.8884 C31.2513,19.2854 30.6703,19.8184 30.2243,20.4854 C29.7793,21.1534 29.4553,21.9144 29.2523,22.7654 C29.0493,23.6174 28.9473,24.4984 28.9473,25.4084 C28.9473,26.2794 29.0493,27.1274 29.2523,27.9494 C29.4553,28.7724 29.7793,29.5124 30.2243,30.1714 C30.6703,30.8294 31.2513,31.3564 31.9673,31.7544 C32.6833,32.1504 33.5543,32.3484 34.5813,32.3484 C36.0913,32.3484 37.2573,31.9664 38.0803,31.2024 C38.9033,30.4374 39.3823,29.3294 39.5173,27.8774 L34.9293,27.8774 L34.9293,24.4784 L43.6413,24.4784 L43.6413,35.6884 L40.7373,35.6884 L40.2733,33.3364 C39.4593,34.3824 38.5593,35.1124 37.5723,35.5284 C36.5843,35.9454 35.5873,36.1534 34.5813,36.1534 C32.9933,36.1534 31.5653,35.8774 30.2973,35.3254 C29.0293,34.7734 27.9593,34.0134 27.0883,33.0464 C26.2173,32.0784 25.5493,30.9404 25.0843,29.6334 C24.6203,28.3274 24.3873,26.9184 24.3873,25.4084 C24.3873,23.8594 24.6203,22.4224 25.0843,21.0954 C25.5493,19.7694 26.2173,18.6124 27.0883,17.6254 C27.9593,16.6374 29.0293,15.8644 30.2973,15.3014 C31.5653,14.7414 32.9933,14.4604 34.5813,14.4604 Z M15.9956,14.954 C17.2926,14.954 18.3956,15.143 19.3066,15.52 C20.2156,15.898 20.9566,16.397 21.5276,17.016 C22.0986,17.636 22.5156,18.342 22.7766,19.136 C23.0376,19.93 23.1686,20.752 23.1686,21.604 C23.1686,22.437 23.0376,23.255 22.7766,24.058 C22.5156,24.861 22.0986,25.573 21.5276,26.192 C20.9566,26.813 20.2156,27.311 19.3066,27.688 C18.3956,28.065 17.2926,28.254 15.9956,28.254 L11.2036,28.254 L11.2036,35.689 L6.6446,35.689 L6.6446,14.954 L15.9956,14.954 Z M14.7466,18.496 L11.2036,18.496 L11.2036,24.711 L14.7466,24.711 C15.2696,24.711 15.7726,24.673 16.2566,24.595 C16.7406,24.518 17.1666,24.368 17.5346,24.145 C17.9026,23.923 18.1976,23.607 18.4206,23.201 C18.6426,22.795 18.7546,22.263 18.7546,21.604 C18.7546,20.946 18.6426,20.413 18.4206,20.007 C18.1976,19.6 17.9026,19.285 17.5346,19.063 C17.1666,18.841 16.7406,18.69 16.2566,18.612 C15.7726,18.535 15.2696,18.496 14.7466,18.496 Z" id="Combined-Shape" fill="#000000"></path>
        </g>
    </g>
</svg>