<?xml version="1.0" encoding="UTF-8"?>
<svg width="auto" height="auto" viewBox="0 0 53 53" version="1.1" xmlns="http://www.w3.org/2000/svg" xmlns:xlink="http://www.w3.org/1999/xlink">
    <title>NZ_Movies_Learn18</title>
    <defs>
        <path d="M33.6579335,11.12546 C36.2821935,11.12546 38.3192135,11.80447 39.7699935,13.16248 C41.2207835,14.52151 41.9456635,16.24145 41.9456635,18.32332 C41.9456635,19.61812 41.6133035,20.77019 40.9475535,21.77952 C40.2817935,22.78885 39.3458735,23.56063 38.1407935,24.09384 C39.6731435,24.71576 40.8374435,25.62314 41.6347135,26.817 C42.4319835,28.00985 42.8306135,29.38723 42.8306135,30.94914 C42.8306135,33.52651 42.0180535,35.62061 40.3919035,37.23351 C38.7657635,38.84538 36.6023235,39.65182 33.9026235,39.65182 C31.3905035,39.65182 29.3004735,38.98505 27.6294735,37.65151 C25.6587235,36.07736 24.6728435,33.91902 24.6728435,31.17752 C24.6728435,29.66658 25.0429335,28.28002 25.7841235,27.01683 C26.5243035,25.75363 27.6926835,24.77897 29.2872235,24.09384 C27.9190135,23.50966 26.9239535,22.70627 26.3020435,21.6847 C25.6801335,20.66212 25.3691835,19.54166 25.3691835,18.32332 C25.3691835,16.24145 26.0879435,14.52151 27.5264935,13.16248 C28.9640335,11.80447 31.0081835,11.12546 33.6579335,11.12546 Z M20.9642935,11.38206 L20.9642935,39.4321 L15.6782335,39.4321 L15.6782335,19.25155 C13.7467735,21.08115 11.4709835,22.43399 8.8488375,23.31109 L8.8488375,23.31109 L8.8488375,18.45187 C10.2291825,17.99447 11.7276935,17.12653 13.3454035,15.8501 C14.9631035,14.57366 16.0734935,13.08431 16.6755435,11.38206 L16.6755435,11.38206 L20.9642935,11.38206 Z M33.7333735,26.3786 C32.4395935,26.3786 31.4761435,26.82924 30.8409835,27.7305 C30.2068335,28.63176 29.8907835,29.60948 29.8907835,30.66368 C29.8907835,32.13587 30.2639235,33.28488 31.0112435,34.10968 C31.7585535,34.93549 32.6904035,35.34738 33.8088235,35.34738 C34.9007335,35.34738 35.8050535,34.95079 36.5207635,34.15759 C37.2364735,33.3644 37.5943235,32.21845 37.5943235,30.72077 C37.5943235,29.41272 37.2303535,28.3626 36.5024135,27.56839 C35.7734535,26.7752 34.8507835,26.3786 33.7333735,26.3786 Z M33.7140035,15.37179 C32.6965135,15.37179 31.8870135,15.67663 31.2844735,16.28631 C30.6809135,16.89497 30.3801535,17.70141 30.3801535,18.70463 C30.3801535,19.77105 30.6778535,20.60197 31.2752935,21.19839 C31.8717235,21.79583 32.6659335,22.09353 33.6579335,22.09353 C34.6621635,22.09353 35.4655535,21.79277 36.0691135,21.18921 C36.6716535,20.58667 36.9724135,19.75168 36.9724135,18.68526 C36.9724135,17.68204 36.6747135,16.87967 36.0782935,16.27611 C35.4818635,15.67357 34.6937735,15.37179 33.7140035,15.37179 Z" id="path-1"></path>
    </defs>
    <g id="---SOURCE---" stroke="none" stroke-width="1" fill="none" fill-rule="evenodd">
        <g id="NZ_Movies_Learn18" transform="translate(0.335534, 0.165916)">
            <polygon id="Fill-1" fill="#F11322" points="0 0 51.8338835 0 51.8338835 51.8338835 0 51.8338835"></polygon>
            <mask id="mask-2" fill="white">
                <use xlink:href="#path-1"></use>
            </mask>
            <use id="Combined-Shape" fill="#000000" xlink:href="#path-1"></use>
        </g>
    </g>
</svg>