<?xml version="1.0" encoding="UTF-8"?>
<svg width="auto" height="auto" viewBox="0 0 53 53" version="1.1" xmlns="http://www.w3.org/2000/svg" xmlns:xlink="http://www.w3.org/1999/xlink">
    <title>NZ_Movies_LearnR16</title>
    <defs>
        <path d="M34.6444835,15.41694 C36.7389435,15.41694 38.4727835,16.01085 39.8459935,17.19866 C41.2192135,18.38647 42.0942735,20.11113 42.4701835,22.37164 L42.4701835,22.37164 L37.3532235,22.94415 C37.2279235,21.87655 36.9019335,21.08909 36.3752635,20.58076 C35.8485935,20.07242 35.1650435,19.81876 34.3246135,19.81876 C33.2081135,19.81876 32.2647935,20.3271 31.4936335,21.34275 C30.7214535,22.35941 30.2355335,24.47425 30.0348435,27.68826 C31.3520335,26.11334 32.9890935,25.32588 34.9450035,25.32588 C37.1525335,25.32588 39.0432535,26.1765 40.6171535,27.87978 C42.1910535,29.58102 42.9785135,31.77938 42.9785135,34.47284 C42.9785135,37.33132 42.1503035,39.62341 40.4949135,41.351133 C38.8395135,43.078857 36.7134735,43.943738 34.1178135,43.943738 C31.3336935,43.943738 29.0446635,42.847611 27.2507235,40.65638 C25.4578035,38.46514 24.5613435,34.87217 24.5613435,29.88051 C24.5613435,24.7605 25.4954935,21.06973 27.3638035,18.80821 C29.2331235,16.5477 31.6596835,15.41694 34.6444835,15.41694 Z M20.9642935,15.67397 L20.9642935,43.724014 L15.6782335,43.724014 L15.6782335,23.54347 C13.7467735,25.37306 11.4709835,26.7259 8.8488375,27.60301 L8.8488375,27.60301 L8.8488375,22.74378 C10.2291825,22.28638 11.7276935,21.41845 13.3454035,20.14201 C14.9631035,18.86557 16.0734935,17.37623 16.6755435,15.67397 L16.6755435,15.67397 L20.9642935,15.67397 Z M34.1178135,30.07031 C33.1011435,30.07031 32.2423835,30.47372 31.5404935,31.28053 C30.8375835,32.08735 30.4861335,33.27821 30.4861335,34.85313 C30.4861335,36.5941 30.8813935,37.93675 31.6719035,38.88313 C32.4624235,39.83052 33.3649935,40.3032 34.3806435,40.3032 C35.3596135,40.3032 36.1745835,39.91609 36.8265535,39.14086 C37.4785235,38.36563 37.8045135,37.0953 37.8045135,35.32988 C37.8045135,33.51251 37.4540735,32.18209 36.7511735,31.33758 C36.0492835,30.49307 35.1711535,30.07031 34.1178135,30.07031 Z M15.8848235,4.74614 C16.1386935,4.74614 16.3823635,4.77447 16.6158235,4.83114 C16.8492935,4.88781 17.0566935,4.97961 17.2380235,5.10654 C17.4193635,5.23347 17.5632935,5.39554 17.6698235,5.59274 C17.7763635,5.78994 17.8296235,6.02907 17.8296235,6.31014 L17.8296235,6.31014 L16.7960235,6.31014 C16.7869635,6.16507 16.7563635,6.04494 16.7042235,5.94974 C16.6520935,5.85454 16.5829635,5.77974 16.4968235,5.72534 C16.4106935,5.67094 16.3120935,5.63241 16.2010235,5.60974 C16.0899635,5.58707 15.9686935,5.57574 15.8372235,5.57574 C15.7510935,5.57574 15.6649635,5.58481 15.5788235,5.60294 C15.4926935,5.62107 15.4144935,5.65281 15.3442235,5.69814 C15.2739635,5.74347 15.2161635,5.80014 15.1708235,5.86814 C15.1254935,5.93614 15.1028235,6.02227 15.1028235,6.12654 C15.1028235,6.22174 15.1209635,6.29881 15.1572235,6.35774 C15.1934935,6.41667 15.2648935,6.47107 15.3714235,6.52094 C15.4779635,6.57081 15.6252935,6.62067 15.8134235,6.67054 C16.0015635,6.72041 16.2474935,6.78387 16.5512235,6.86094 C16.6418935,6.87907 16.7676935,6.91194 16.9286235,6.95954 C17.0895635,7.00714 17.2493635,7.08307 17.4080235,7.18734 C17.5666935,7.29161 17.7038235,7.43101 17.8194235,7.60554 C17.9350235,7.78007 17.9928235,8.00334 17.9928235,8.27534 C17.9928235,8.49747 17.9497635,8.70374 17.8636235,8.89414 C17.7774935,9.08454 17.6494235,9.24887 17.4794235,9.38714 C17.3094235,9.52541 17.0986235,9.63307 16.8470235,9.71014 C16.5954235,9.78721 16.3041635,9.82574 15.9732235,9.82574 C15.7057635,9.82574 15.4462235,9.79287 15.1946235,9.72714 C14.9430235,9.66141 14.7208935,9.55827 14.5282235,9.41774 C14.3355635,9.27721 14.1825635,9.09814 14.0692235,8.88054 C13.9558935,8.66294 13.9014935,8.40454 13.9060235,8.10534 L13.9060235,8.10534 L14.9396235,8.10534 C14.9396235,8.26854 14.9690935,8.40681 15.0280235,8.52014 C15.0869635,8.63347 15.1651635,8.72527 15.2626235,8.79554 C15.3600935,8.86581 15.4745635,8.91794 15.6060235,8.95194 C15.7374935,8.98594 15.8734935,9.00294 16.0140235,9.00294 C16.1092235,9.00294 16.2112235,8.99501 16.3200235,8.97914 C16.4288235,8.96327 16.5308235,8.93267 16.6260235,8.88734 C16.7212235,8.84201 16.8005635,8.77967 16.8640235,8.70034 C16.9274935,8.62101 16.9592235,8.52014 16.9592235,8.39774 C16.9592235,8.26627 16.9172935,8.15974 16.8334235,8.07814 C16.7495635,7.99654 16.6396235,7.92854 16.5036235,7.87414 C16.3676235,7.81974 16.2134935,7.77214 16.0412235,7.73134 C15.8689635,7.69054 15.6944235,7.64521 15.5176235,7.59534 C15.3362935,7.55001 15.1594935,7.49447 14.9872235,7.42874 C14.8149635,7.36301 14.6608235,7.27801 14.5248235,7.17374 C14.3888235,7.06947 14.2788935,6.93914 14.1950235,6.78274 C14.1111635,6.62634 14.0692235,6.43707 14.0692235,6.21494 C14.0692235,5.96561 14.1224935,5.74914 14.2290235,5.56554 C14.3355635,5.38194 14.4749635,5.22894 14.6472235,5.10654 C14.8194935,4.98414 15.0144235,4.89347 15.2320235,4.83454 C15.4496235,4.77561 15.6672235,4.74614 15.8848235,4.74614 Z M31.4956235,4.74614 C31.7630935,4.74614 32.0158235,4.78467 32.2538235,4.86174 C32.4918235,4.93881 32.7048935,5.05101 32.8930235,5.19834 C33.0811635,5.34567 33.2364235,5.52814 33.3588235,5.74574 C33.4812235,5.96334 33.5582935,6.21267 33.5900235,6.49374 L33.5900235,6.49374 L32.5564235,6.49374 C32.5382935,6.37134 32.4974935,6.25914 32.4340235,6.15714 C32.3705635,6.05514 32.2912235,5.96561 32.1960235,5.88854 C32.1008235,5.81147 31.9931635,5.75141 31.8730235,5.70834 C31.7528935,5.66527 31.6270935,5.64374 31.4956235,5.64374 C31.2553635,5.64374 31.0513635,5.69021 30.8836235,5.78314 C30.7158935,5.87607 30.5798935,6.00074 30.4756235,6.15714 C30.3713635,6.31354 30.2954235,6.49147 30.2478235,6.69094 C30.2002235,6.89041 30.1764235,7.09667 30.1764235,7.30974 C30.1764235,7.51374 30.2002235,7.71207 30.2478235,7.90474 C30.2954235,8.09741 30.3713635,8.27081 30.4756235,8.42494 C30.5798935,8.57907 30.7158935,8.70261 30.8836235,8.79554 C31.0513635,8.88847 31.2553635,8.93494 31.4956235,8.93494 C31.8220235,8.93494 32.0770235,8.83521 32.2606235,8.63574 C32.4442235,8.43627 32.5564235,8.17334 32.5972235,7.84694 L32.5972235,7.84694 L33.6308235,7.84694 C33.6036235,8.15067 33.5333635,8.42494 33.4200235,8.66974 C33.3066935,8.91454 33.1570935,9.12307 32.9712235,9.29534 C32.7853635,9.46761 32.5677635,9.59907 32.3184235,9.68974 C32.0690935,9.78041 31.7948235,9.82574 31.4956235,9.82574 C31.1238935,9.82574 30.7895635,9.76114 30.4926235,9.63194 C30.1956935,9.50274 29.9452235,9.32481 29.7412235,9.09814 C29.5372235,8.87147 29.3808235,8.60514 29.2720235,8.29914 C29.1632235,7.99314 29.1088235,7.66334 29.1088235,7.30974 C29.1088235,6.94707 29.1632235,6.61047 29.2720235,6.29994 C29.3808235,5.98941 29.5372235,5.71854 29.7412235,5.48734 C29.9452235,5.25614 30.1956935,5.07481 30.4926235,4.94334 C30.7895635,4.81187 31.1238935,4.74614 31.4956235,4.74614 Z M7.4581435,4.14774 C7.7077435,4.14774 7.9326435,4.18804 8.1328435,4.26864 C8.3330435,4.34924 8.5046435,4.45974 8.6476435,4.60014 C8.7906435,4.74054 8.8998435,4.90304 8.9752435,5.08764 C9.0506435,5.27224 9.0883435,5.47114 9.0883435,5.68434 C9.0883435,6.01194 9.0194435,6.29534 8.8816435,6.53454 C8.7438435,6.77374 8.5189435,6.95574 8.2069435,7.08054 L8.2069435,7.08054 L8.2069435,7.09614 C8.3577435,7.13774 8.4825435,7.20144 8.5813435,7.28724 C8.6801435,7.37304 8.7607435,7.47444 8.8231435,7.59144 C8.8855435,7.70844 8.9310435,7.83714 8.9596435,7.97754 C8.9882435,8.11794 9.0077435,8.25834 9.0181435,8.39874 C9.0233435,8.48714 9.0285435,8.59114 9.0337435,8.71074 C9.0389435,8.83034 9.0480435,8.95254 9.0610435,9.07734 C9.0740435,9.20214 9.0948435,9.32044 9.1234435,9.43224 C9.1520435,9.54404 9.1949435,9.63894 9.2521435,9.71694 L9.2521435,9.71694 L8.0275435,9.71694 C7.9599435,9.54014 7.9183435,9.32954 7.9027435,9.08514 C7.8871435,8.84074 7.8637435,8.60674 7.8325435,8.38314 C7.7909435,8.09194 7.7025435,7.87874 7.5673435,7.74354 C7.4321435,7.60834 7.2111435,7.54074 6.9043435,7.54074 L6.9043435,7.54074 L5.6797435,7.54074 L5.6797435,9.71694 L4.4551435,9.71694 L4.4551435,4.14774 Z M13.5308235,4.86174 L13.5308235,5.75934 L10.9672235,5.75934 L10.9672235,6.79974 L13.3200235,6.79974 L13.3200235,7.62934 L10.9672235,7.62934 L10.9672235,8.81934 L13.5852235,8.81934 L13.5852235,9.71694 L9.8996255,9.71694 L9.8996255,4.86174 L13.5308235,4.86174 Z M22.1284235,4.86174 L22.1284235,5.75934 L20.6732235,5.75934 L20.6732235,9.71694 L19.6056235,9.71694 L19.6056235,5.75934 L18.1504235,5.75934 L18.1504235,4.86174 L22.1284235,4.86174 Z M25.2100235,4.86174 C25.4276235,4.86174 25.6236935,4.89687 25.7982235,4.96714 C25.9727635,5.03741 26.1223635,5.13374 26.2470235,5.25614 C26.3716935,5.37854 26.4668935,5.52021 26.5326235,5.68114 C26.5983635,5.84207 26.6312235,6.01547 26.6312235,6.20134 C26.6312235,6.48694 26.5711635,6.73401 26.4510235,6.94254 C26.3308935,7.15107 26.1348235,7.30974 25.8628235,7.41854 L25.8628235,7.41854 L25.8628235,7.43214 C25.9942935,7.46841 26.1030935,7.52394 26.1892235,7.59874 C26.2753635,7.67354 26.3456235,7.76194 26.4000235,7.86394 C26.4544235,7.96594 26.4940935,8.07814 26.5190235,8.20054 C26.5439635,8.32294 26.5609635,8.44534 26.5700235,8.56774 C26.5745635,8.64481 26.5790935,8.73547 26.5836235,8.83974 C26.5881635,8.94401 26.5960935,9.05054 26.6074235,9.15934 C26.6187635,9.26814 26.6368935,9.37127 26.6618235,9.46874 C26.6867635,9.56621 26.7241635,9.64894 26.7740235,9.71694 L26.7740235,9.71694 L25.7064235,9.71694 C25.6474935,9.56281 25.6112235,9.37921 25.5976235,9.16614 C25.5840235,8.95307 25.5636235,8.74907 25.5364235,8.55414 C25.5001635,8.30027 25.4230935,8.11441 25.3052235,7.99654 C25.1873635,7.87867 24.9946935,7.81974 24.7272235,7.81974 L24.7272235,7.81974 L23.6596235,7.81974 L23.6596235,9.71694 L22.5920235,9.71694 L22.5920235,4.86174 Z M28.4752235,4.86174 L28.4752235,9.71694 L27.4076235,9.71694 L27.4076235,4.86174 L28.4752235,4.86174 Z M37.8616235,4.86174 L37.8616235,5.75934 L36.4064235,5.75934 L36.4064235,9.71694 L35.3388235,9.71694 L35.3388235,5.75934 L33.8836235,5.75934 L33.8836235,4.86174 L37.8616235,4.86174 Z M41.9564235,4.86174 L41.9564235,5.75934 L39.3928235,5.75934 L39.3928235,6.79974 L41.7456235,6.79974 L41.7456235,7.62934 L39.3928235,7.62934 L39.3928235,8.81934 L42.0108235,8.81934 L42.0108235,9.71694 L38.3252235,9.71694 L38.3252235,4.86174 L41.9564235,4.86174 Z M45.1090235,4.14774 C45.4678235,4.14774 45.8019235,4.20494 46.1113235,4.31934 C46.4207235,4.43374 46.6885235,4.60534 46.9147235,4.83414 C47.1409235,5.06294 47.3177235,5.34894 47.4451235,5.69214 C47.5725235,6.03534 47.6362235,6.43834 47.6362235,6.90114 C47.6362235,7.30674 47.5842235,7.68114 47.4802235,8.02434 C47.3762235,8.36754 47.2189235,8.66394 47.0083235,8.91354 C46.7977235,9.16314 46.5351235,9.35944 46.2205235,9.50244 C45.9059235,9.64544 45.5354235,9.71694 45.1090235,9.71694 L45.1090235,9.71694 L42.7066235,9.71694 L42.7066235,4.14774 Z M44.8048235,5.17734 L43.9312235,5.17734 L43.9312235,8.68734 L45.0232235,8.68734 C45.2000235,8.68734 45.3716235,8.65874 45.5380235,8.60154 C45.7044235,8.54434 45.8526235,8.44944 45.9826235,8.31684 C46.1126235,8.18424 46.2166235,8.01134 46.2946235,7.79814 C46.3726235,7.58494 46.4116235,7.32494 46.4116235,7.01814 C46.4116235,6.73734 46.3843235,6.48384 46.3297235,6.25764 C46.2751235,6.03144 46.1854235,5.83774 46.0606235,5.67654 C45.9358235,5.51534 45.7707235,5.39184 45.5653235,5.30604 C45.3599235,5.22024 45.1064235,5.17734 44.8048235,5.17734 L44.8048235,5.17734 Z M24.8292235,5.69134 L23.6596235,5.69134 L23.6596235,7.05814 L24.8292235,7.05814 C25.0740235,7.05814 25.2576235,7.00374 25.3800235,6.89494 C25.5024235,6.78614 25.5636235,6.60934 25.5636235,6.36454 C25.5636235,6.12881 25.5024235,5.95767 25.3800235,5.85114 C25.2576235,5.74461 25.0740235,5.69134 24.8292235,5.69134 L24.8292235,5.69134 Z M7.0213435,5.09934 L5.6797435,5.09934 L5.6797435,6.66714 L7.0213435,6.66714 C7.3021435,6.66714 7.5127435,6.60474 7.6531435,6.47994 C7.7935435,6.35514 7.8637435,6.15234 7.8637435,5.87154 C7.8637435,5.60114 7.7935435,5.40484 7.6531435,5.28264 C7.5127435,5.16044 7.3021435,5.09934 7.0213435,5.09934 L7.0213435,5.09934 Z" id="path-1"></path>
    </defs>
    <g id="---SOURCE---" stroke="none" stroke-width="1" fill="none" fill-rule="evenodd">
        <g id="NZ_Movies_LearnR16" transform="translate(0.501651, 0.165916)">
            <polygon id="Fill-1" fill="#F11322" points="0 0 51.8338835 0 51.8338835 51.8338835 0 51.8338835"></polygon>
            <mask id="mask-2" fill="white">
                <use xlink:href="#path-1"></use>
            </mask>
            <use id="Combined-Shape" fill="#000000" xlink:href="#path-1"></use>
        </g>
    </g>
</svg>