<?xml version="1.0" encoding="UTF-8"?>
<svg width="auto" height="auto" viewBox="0 0 300 300" version="1.1" xmlns="http://www.w3.org/2000/svg" xmlns:xlink="http://www.w3.org/1999/xlink">
    <title>_Assets/Content Ratings &amp; Descriptors/Localization/Korea/Age Ratings/12</title>
    <g id="_Assets/Content-Ratings-&amp;-Descriptors/Localization/Korea/Age-Ratings/12" stroke="none" stroke-width="1" fill="none" fill-rule="evenodd">
        <path d="M266.170245,300 L33.8221953,300 C15.1421228,300 0,284.857496 0,266.184512 L0,33.8154877 C0,15.1425043 15.1421228,0 33.8221953,0 L266.170245,0 C284.850318,0 300,15.1425043 300,33.8154877 L300,266.184512 C300,284.857496 284.850318,300 266.170245,300" id="Fill-587" fill="#DFB039"></path>
        <polygon id="Fill-588" fill="#FFFFFE" points="64.5617775 254 64.5617775 104.70354 48 104.70354 69.4476156 47 111 47 111 254"></polygon>
        <path d="M244.378553,47 L224.644748,47 L212.641088,47 L162.985117,47 L150.996584,47 L131.247652,47 C128.691107,47 126.626205,49.0665617 126.626205,51.6082818 L126.626205,70.7503753 L126.626205,83.2553363 L126.626205,113.944532 L171.849823,113.944532 L171.849823,85.8724783 L203.799073,85.8724783 L203.799073,110.701388 L125,222.74071 L125,253 L248.470538,253 L248.470538,212.754842 L182.416372,212.754842 L240.06722,132.03826 C241.874954,129.511625 243.312065,127.316845 244.408808,125.416212 C245.490423,123.530663 246.390509,121.697909 247.116628,119.88024 C247.82762,118.09274 248.326827,116.109142 248.599122,113.944532 C248.871416,111.779922 249,109.177864 249,106.115732 L249,83.2553363 L249,70.7503753 L249,51.6082818 C249,49.0665617 246.935098,47 244.378553,47" id="Fill-589" fill="#FFFFFE"></path>
    </g>
</svg>