<?xml version="1.0" encoding="UTF-8"?>
<svg width="auto" height="auto" viewBox="0 0 300 300" version="1.1" xmlns="http://www.w3.org/2000/svg" xmlns:xlink="http://www.w3.org/1999/xlink">
    <title>_Assets/Content Ratings &amp; Descriptors/Localization/Korea/Age Ratings/15</title>
    <g id="_Assets/Content-Ratings-&amp;-Descriptors/Localization/Korea/Age-Ratings/15" stroke="none" stroke-width="1" fill="none" fill-rule="evenodd">
        <path d="M266.177805,300 L33.8070759,300 C15.1496825,300 0,284.857877 0,266.177805 L0,33.8221953 C0,15.1421228 15.1496825,0 33.8070759,0 L266.177805,0 C284.857877,0 300,15.1421228 300,33.8221953 L300,266.177805 C300,284.857877 284.857877,300 266.177805,300" id="Fill-590" fill="#CD6D34"></path>
        <polygon id="Fill-591" fill="#FFFFFE" points="64.5709642 254 64.5709642 104.722027 48 104.722027 69.447454 47 111 47 111 254"></polygon>
        <path d="M244.365217,117.720774 L225.378538,117.720774 L212.53617,117.720774 L171.60444,117.720774 L171.60444,87.3751051 L247.642183,87.3751051 L247.642183,47 L126,47 L126,157.278385 L203.934135,157.278385 L203.934135,214.979815 L171.073451,214.979815 L171.073451,187.881413 L126,187.881413 L126,217.613961 L126,229.899075 L126,249.375105 C126,251.925988 128.078446,254 130.634783,254 L149.355967,254 L162.46383,254 L212.53617,254 L225.378538,254 L244.365217,254 C246.921554,254 249,251.925988 249,249.375105 L249,229.899075 L249,217.613961 L249,154.106812 L249,141.821699 L249,122.345669 C249,119.794786 246.921554,117.720774 244.365217,117.720774" id="Fill-592" fill="#FFFFFE"></path>
    </g>
</svg>