<?xml version="1.0" encoding="UTF-8"?>
<svg width="auto" height="auto" viewBox="0 0 300 300" version="1.1" xmlns="http://www.w3.org/2000/svg" xmlns:xlink="http://www.w3.org/1999/xlink">
    <title>_Assets/Content Ratings &amp; Descriptors/Localization/Korea/Age Ratings/18</title>
    <g id="_Assets/Content-Ratings-&amp;-Descriptors/Localization/Korea/Age-Ratings/18" stroke="none" stroke-width="1" fill="none" fill-rule="evenodd">
        <path d="M266.185364,300 L33.8146356,300 C15.134563,300 0,284.873378 0,266.186216 L0,33.8213431 C0,15.1417412 15.134563,0 33.8146356,0 L266.185364,0 C284.865437,0 300,15.1417412 300,33.8213431 L300,266.186216 C300,284.873378 284.865437,300 266.185364,300" id="Fill-593" fill="#C52E37"></path>
        <polygon id="Fill-594" fill="#FFFFFE" points="63.5749548 254 63.5749548 104.706889 47 104.706889 68.4677905 47 110 47 110 254"></polygon>
        <path d="M250.44824,169.192599 C250.092998,166.671993 249.465655,164.499579 248.566211,162.690496 C247.666767,160.888982 246.442315,159.352397 244.90797,158.08074 C243.381183,156.816653 241.438687,155.560135 239.095598,154.303616 L225.301608,147.801514 L239.095598,140.466779 C243.245132,137.946173 246.170214,135.15307 247.88596,132.07233 C249.601705,129.006728 250.44824,124.396972 250.44824,118.2582 L250.44824,51.6248949 C250.44824,49.0664424 248.377252,47 245.830088,47 L130.890253,47 C128.33553,47 126.264542,49.0664424 126.264542,51.6248949 L126.264542,118.2582 C126.264542,124.200168 127.141311,128.779647 128.84194,131.928511 C130.557685,135.107653 133.490325,137.946173 137.632301,140.466779 L151.426291,147.801514 L137.632301,154.303616 C132.923449,156.816653 129.832084,159.80656 128.297739,163.227923 C126.763393,166.671993 126,171.728343 126,178.412111 L126,217.613961 L126,229.891505 L126,249.382675 C126,251.933558 128.070988,254 130.618152,254 L246.381848,254 C248.929012,254 251,251.933558 251,249.382675 L251,229.891505 L251,217.613961 L251,178.412111 C251,174.793944 250.811041,171.728343 250.44824,169.192599 L250.44824,169.192599 Z M204.999879,211.179983 C204.999879,213.730866 202.928891,215.797309 200.381727,215.797309 L176.625831,215.797309 C174.078667,215.797309 172.000121,213.730866 172.000121,211.179983 L172.000121,169.752733 C172.000121,167.20185 174.078667,165.127839 176.625831,165.127839 L200.381727,165.127839 C202.928891,165.127839 204.999879,167.20185 204.999879,169.752733 L204.999879,211.179983 Z M204.999879,125.925988 C204.999879,128.476871 202.928891,130.543314 200.381727,130.543314 L176.625831,130.543314 C174.078667,130.543314 172.000121,128.476871 172.000121,125.925988 L172.000121,89.6989066 C172.000121,87.1480235 174.078667,85.0740118 176.625831,85.0740118 L200.381727,85.0740118 C202.928891,85.0740118 204.999879,87.1480235 204.999879,89.6989066 L204.999879,125.925988 Z" id="Fill-595" fill="#FFFFFE"></path>
    </g>
</svg>