<?xml version="1.0" encoding="UTF-8"?>
<svg width="auto" height="auto" viewBox="0 0 72 72" version="1.1" xmlns="http://www.w3.org/2000/svg" xmlns:xlink="http://www.w3.org/1999/xlink">
    <title>kr-tv/KR_TV_Learn12</title>
    <g id="kr-tv/KR_TV_Learn12" stroke="none" stroke-width="1" fill="none" fill-rule="evenodd">
        <g id="Korean-Age-Rating---7">
            <path d="M36,1 C16.6700338,1 1,16.6700338 1,36 C1,55.3299662 16.6700338,71 36,71 C55.3299662,71 71,55.3299662 71,36 C71,16.6700338 55.3299662,1 36,1 Z" id="Path" fill="#FFFFFF" fill-rule="nonzero"></path>
            <circle id="Oval" fill="#FAC405" cx="36" cy="36" r="30"></circle>
            <path d="M36,0 C55.882251,0 72,16.117749 72,36 C72,55.882251 55.882251,72 36,72 C16.117749,72 0,55.882251 0,36 C0,16.117749 16.117749,0 36,0 Z M36,2 C17.2223185,2 2,17.2223185 2,36 C2,54.7776815 17.2223185,70 36,70 C54.7776815,70 70,54.7776815 70,36 C70,17.2223185 54.7776815,2 36,2 Z" id="Oval" fill="#CFCDC3" fill-rule="nonzero"></path>
            <path d="M30.9795907,47 L30.9795907,25.1577148 L24.561622,25.1577148 L19.0821298,28.8208008 L19.0821298,34.1943359 L24.4405282,30.6523438 L24.561622,30.6523438 L24.561622,47 L30.9795907,47 Z M52.7487793,47 L52.7487793,42.15625 L43.6062012,42.15625 L43.6062012,42.0351562 L47.5720215,38.8261719 C51.0837402,35.9956055 52.4914551,34.3608398 52.4914551,31.4394531 L52.4914551,31.4091797 C52.4914551,27.3979492 49.0402832,24.7641602 43.7575684,24.7641602 C38.5808105,24.7641602 35.0236816,27.7612305 35.0236816,32.1962891 L35.0236816,32.3476562 L40.8664551,32.3476562 L40.8815918,32.1508789 C41.0026855,30.5766602 42.0168457,29.5019531 43.7575684,29.5019531 C45.2712402,29.5019531 46.3156738,30.4555664 46.3156738,31.8027344 L46.3156738,31.8330078 C46.3156738,33.0439453 45.8312988,33.9975586 43.1520996,36.2075195 L35.4020996,42.6254883 L35.4020996,47 L52.7487793,47 Z" id="12" fill="#000000" fill-rule="nonzero"></path>
        </g>
    </g>
</svg>