<?xml version="1.0" encoding="UTF-8"?>
<svg width="auto" height="auto" viewBox="0 0 72 72" version="1.1" xmlns="http://www.w3.org/2000/svg" xmlns:xlink="http://www.w3.org/1999/xlink">
    <title>kr-tv/KR_TV_Learn15</title>
    <g id="kr-tv/KR_TV_Learn15" stroke="none" stroke-width="1" fill="none" fill-rule="evenodd">
        <g id="Korean-Age-Rating---7">
            <path d="M36,1 C16.6700338,1 1,16.6700338 1,36 C1,55.3299662 16.6700338,71 36,71 C55.3299662,71 71,55.3299662 71,36 C71,16.6700338 55.3299662,1 36,1 Z" id="Path" fill="#FFFFFF" fill-rule="nonzero"></path>
            <circle id="Oval" fill="#FAC405" cx="36" cy="36" r="30"></circle>
            <path d="M36,0 C55.882251,0 72,16.117749 72,36 C72,55.882251 55.882251,72 36,72 C16.117749,72 0,55.882251 0,36 C0,16.117749 16.117749,0 36,0 Z M36,2 C17.2223185,2 2,17.2223185 2,36 C2,54.7776815 17.2223185,70 36,70 C54.7776815,70 70,54.7776815 70,36 C70,17.2223185 54.7776815,2 36,2 Z" id="Oval" fill="#CFCDC3" fill-rule="nonzero"></path>
            <path d="M30.5936044,47 L30.5936044,25.1577148 L24.1756357,25.1577148 L18.6961435,28.8208008 L18.6961435,34.1943359 L24.0545419,30.6523438 L24.1756357,30.6523438 L24.1756357,47 L30.5936044,47 Z M44.2797852,47.3935547 C49.7138672,47.3935547 53.3920898,44.2451172 53.3920898,39.4921875 L53.3920898,39.4619141 C53.3920898,35.4052734 50.425293,32.4838867 46.3232422,32.4838867 C44.0073242,32.4838867 42.2363281,33.4980469 41.434082,34.9663086 L41.3129883,34.9663086 L41.6459961,30.0014648 L51.984375,30.0014648 L51.984375,25.1577148 L36.6206055,25.1577148 L35.7426758,38.3569336 L41.2827148,38.3569336 C41.5097656,37.9331055 41.8730469,37.5244141 42.3422852,37.2216797 C42.8569336,36.9038086 43.5078125,36.6918945 44.2646484,36.6918945 C46.0810547,36.6918945 47.3828125,37.8574219 47.3828125,39.5830078 L47.3828125,39.6132812 C47.3828125,41.3388672 46.0961914,42.5498047 44.2797852,42.5498047 C42.6904297,42.5498047 41.5703125,41.6567383 41.1918945,40.5366211 L41.1616211,40.4458008 L35.3945312,40.4458008 L35.409668,40.7182617 C35.621582,44.472168 38.9365234,47.3935547 44.2797852,47.3935547 Z" id="15" fill="#000000" fill-rule="nonzero"></path>
        </g>
    </g>
</svg>