<?xml version="1.0" encoding="UTF-8"?>
<svg width="auto" height="auto" viewBox="0 0 72 72" version="1.1" xmlns="http://www.w3.org/2000/svg" xmlns:xlink="http://www.w3.org/1999/xlink">
    <title>kr-tv/KR_TV_LearnAll</title>
    <g id="kr-tv/KR_TV_LearnAll" stroke="none" stroke-width="1" fill="none" fill-rule="evenodd">
        <g id="Korean-Age-Rating---7">
            <path d="M36,1 C16.6700338,1 1,16.6700338 1,36 C1,55.3299662 16.6700338,71 36,71 C55.3299662,71 71,55.3299662 71,36 C71,16.6700338 55.3299662,1 36,1 Z" id="Path" fill="#FFFFFF" fill-rule="nonzero"></path>
            <circle id="Oval" fill="#FAC405" cx="36" cy="36" r="30"></circle>
            <path d="M36,0 C55.882251,0 72,16.117749 72,36 C72,55.882251 55.882251,72 36,72 C16.117749,72 0,55.882251 0,36 C0,16.117749 16.117749,0 36,0 Z M36,2 C17.2223185,2 2,17.2223185 2,36 C2,54.7776815 17.2223185,70 36,70 C54.7776815,70 70,54.7776815 70,36 C70,17.2223185 54.7776815,2 36,2 Z" id="Oval" fill="#CFCDC3" fill-rule="nonzero"></path>
            <path d="M22.6531019,47 L23.7883558,42.6557617 L30.3274183,42.6557617 L31.4626722,47 L38.2136488,47 L31.0842543,25.1577148 L23.0315199,25.1577148 L15.9021254,47 L22.6531019,47 Z M29.1467543,38.1298828 L24.9690199,38.1298828 L26.9973402,30.3647461 L27.118434,30.3647461 L29.1467543,38.1298828 Z M46.2841069,47 L46.2841069,25.1577148 L40.0780522,25.1577148 L40.0780522,47 L46.2841069,47 Z M55.1416744,47 L55.1416744,25.1577148 L48.9356197,25.1577148 L48.9356197,47 L55.1416744,47 Z" id="All" fill="#000000" fill-rule="nonzero"></path>
        </g>
    </g>
</svg>