<?xml version="1.0" encoding="UTF-8"?>
<svg width="auto" height="auto" viewBox="0 0 50 50" version="1.1" xmlns="http://www.w3.org/2000/svg" xmlns:xlink="http://www.w3.org/1999/xlink">
    <title>12A</title>
    <g id="12A" stroke="none" stroke-width="1" fill="none" fill-rule="evenodd">
        <path d="M50.0001,24.9997 C50.0001,38.8077 38.8071,49.9997 25.0001,49.9997 C11.1931,49.9997 0.0001,38.8077 0.0001,24.9997 C0.0001,11.1927 11.1931,-0.0003 25.0001,-0.0003 C38.8071,-0.0003 50.0001,11.1927 50.0001,24.9997" id="Fill-1" fill="#F68937"></path>
        <path d="M11.275,13.527 L11.275,36.364 L6.817,36.364 L6.817,13.527 L11.275,13.527 Z M19.5817,13.335 C23.6227,13.335 26.5097,15.869 26.5097,19.974 C26.5097,22.187 25.6437,23.374 24.0717,25.202 L17.6887,32.611 L26.5097,32.611 L26.509,34.244 L34.0454,13.5274 L37.5414,13.5274 L45.8804,36.3644 L41.2294,36.3644 L39.8834,32.3224 L31.7684,32.3224 L30.3884,36.3644 L25.7384,36.3644 L25.738,36.363 L12.6217,36.364 L12.6217,32.611 L21.1527,22.7 C21.9867,21.706 22.3397,21.001 22.3397,19.942 C22.3397,18.242 21.3457,17.088 19.5817,17.088 C18.2027,17.088 16.7907,17.793 16.7907,20.006 L12.6217,20.006 C12.6217,15.837 15.6687,13.335 19.5817,13.335 Z M35.9054,20.2624 L33.0184,28.5704 L38.6964,28.5704 L35.9054,20.2624 Z" id="Combined-Shape" fill="#FFFFFF"></path>
    </g>
</svg>