<svg id="Layer_1" data-name="Layer 1" xmlns="http://www.w3.org/2000/svg" width="auto" height="auto" viewBox="0 0 318.19 283.46"><defs><style>.cls-1{fill:#fff;}.cls-2{fill:#fbad00;}</style></defs><title>BBFC PG_RGB</title><path d="M314.25,238.77,185,14.9a29.79,29.79,0,0,0-51.6,0L4.14,238.78a29.79,29.79,0,0,0,25.8,44.68H288.45a29.79,29.79,0,0,0,25.8-44.69ZM310,266.08a24.57,24.57,0,0,1-21.5,12.41H29.94a24.83,24.83,0,0,1-21.5-37.23L137.7,17.38a24.82,24.82,0,0,1,43,0L310,241.26A24.6,24.6,0,0,1,310,266.08Z" transform="translate(-0.1 0)"/><path class="cls-1" d="M310,241.26,180.69,17.38a24.82,24.82,0,0,0-43,0L8.44,241.26a24.83,24.83,0,0,0,21.5,37.23H288.45A24.82,24.82,0,0,0,310,241.26Zm-21.5,24.8H29.94a12.39,12.39,0,0,1-10.73-18.58L148.47,23.6a12.39,12.39,0,0,1,21.45,0L299.18,247.48A12.39,12.39,0,0,1,288.45,266.06Z" transform="translate(-0.1 0)"/><path class="cls-2" d="M169.92,23.6a12.39,12.39,0,0,0-21.45,0L19.21,247.48a12.39,12.39,0,0,0,10.73,18.58H288.45a12.39,12.39,0,0,0,10.73-18.58Z" transform="translate(-0.1 0)"/><path class="cls-1" d="M102.16,161.48V194.3h12.73a39.91,39.91,0,0,0,10-.8c11-2.68,11.65-12.73,11.65-16.08,0-7-3.08-10.58-4.68-12.06-4.43-3.75-10.59-3.88-16.35-3.88ZM84.34,146.34h31.89c5.22,0,10.72,0,16.21,1.47,9.24,2.55,22.24,10.85,22.24,30,0,12.6-5.9,26.13-22.77,29.88-5.23,1.21-10.19,1.21-16,1.21h-13.8v32H84.34Z" transform="translate(-0.1 0)"/><path class="cls-1" d="M244.9,189.21v51.71H229.76v-8a35.68,35.68,0,0,1-25.85,10.45c-29.21,0-44.61-23.32-44.61-48.77,0-29.74,19.69-50.64,45.68-50.64,19.7,0,34.16,12.06,39.92,27.86L228,178.63c-1.74-5.23-6.83-18.76-22.91-18.76-17.81,0-26.52,15.54-26.52,34.17,0,20.76,11.39,32.68,26.79,32.68,9.92,0,21.71-5.22,23.31-22H205.11V189.21Z" transform="translate(-0.1 0)"/></svg>