<svg id="Layer_1" data-name="Layer 1" xmlns="http://www.w3.org/2000/svg" width="auto" height="auto" viewBox="0 0 283.46 283.46"><defs><style>.cls-1{fill:#fff;}.cls-2{fill:#dc0a0a;}</style></defs><title>BBFC 18_RGB</title><path d="M141.73,0A141.73,141.73,0,1,0,283.46,141.73,141.74,141.74,0,0,0,141.73,0Zm0,278.49A136.76,136.76,0,1,1,278.49,141.73,136.76,136.76,0,0,1,141.73,278.49Z" transform="translate(0 0)"/><path class="cls-1" d="M141.73,5A136.76,136.76,0,1,0,278.49,141.73,136.76,136.76,0,0,0,141.73,5Zm0,261.09A124.33,124.33,0,1,1,266.06,141.73,124.32,124.32,0,0,1,141.73,266.06Z" transform="translate(0 0)"/><circle class="cls-2" cx="141.73" cy="141.73" r="124.33" transform="translate(-58.71 141.73) rotate(-45)"/><path class="cls-1" d="M114,90.43v99.48H95.9V133c0-9.43,0-12.23-8.11-12.23H71.57V109.44h1.92c9.29-.15,21.82-.29,25.8-19Z" transform="translate(0 0)"/><path class="cls-1" d="M148.63,118.43c0,4.42,1.92,13.12,15.33,13.12,11.65,0,14.59-7.52,14.59-13.12,0-11.35-9-13.41-14.74-13.41-12.52-.15-15.18,8-15.18,13.41M147,160.73c0,8.4,5.9,14.15,16.8,14.15,9.58,0,16.66-5,16.66-14.3,0-1.76-.3-14.15-16.66-14.15-15.77,0-16.8,11.21-16.8,14.3m53.21.59c0,18.13-15.63,29.92-37.29,29.92-22.7,0-36.7-12.67-36.7-29.92,0-15.63,11.35-21.08,16.36-23.43-10.61-5-12.82-15.78-12.82-21.67,0-15.47,12.82-27.42,34.19-27.42,20.49,0,33.9,11.06,33.9,28.3,0,8.7-3.54,16.21-13,20.79,11.49,5.74,15.33,14.29,15.33,23.43" transform="translate(0 0)"/></svg>