<svg id="Layer_1" data-name="Layer 1" xmlns="http://www.w3.org/2000/svg" width="auto" height="auto" viewBox="0 0 318.19 283.46"><defs><style>.cls-1{fill:#fff;}.cls-2{fill:#0ac700;}</style></defs><title>BBFC U_RGB</title><path d="M314.25,238.77,185,14.9a29.79,29.79,0,0,0-51.6,0L4.14,238.78a29.79,29.79,0,0,0,25.8,44.68H288.45a29.79,29.79,0,0,0,25.8-44.69ZM310,266.08a24.57,24.57,0,0,1-21.5,12.41H29.94a24.83,24.83,0,0,1-21.5-37.23L137.7,17.38a24.82,24.82,0,0,1,43,0L310,241.26A24.6,24.6,0,0,1,310,266.08Z" transform="translate(-0.1 0)"/><path class="cls-1" d="M310,241.26,180.69,17.38a24.82,24.82,0,0,0-43,0L8.44,241.26a24.83,24.83,0,0,0,21.5,37.23H288.45A24.82,24.82,0,0,0,310,241.26Zm-21.5,24.8H29.94a12.39,12.39,0,0,1-10.73-18.58L148.47,23.6a12.39,12.39,0,0,1,21.45,0L299.18,247.48A12.39,12.39,0,0,1,288.45,266.06Z" transform="translate(-0.1 0)"/><path class="cls-2" d="M169.92,23.6a12.39,12.39,0,0,0-21.45,0L19.21,247.48a12.39,12.39,0,0,0,10.73,18.58H288.45a12.39,12.39,0,0,0,10.73-18.58Z" transform="translate(-0.1 0)"/><path class="cls-1" d="M199.13,136.57V199c-.14,11.23-.14,20.49-10.67,29.47-10.1,8.85-23.16,9.69-29.89,9.69A52.58,52.58,0,0,1,141,235.52c-11.79-4.07-18.11-12.63-20.35-20.07-1.26-4.35-1.26-7.44-1.41-19.79V136.57h18.53v60.92c0,4.21-.14,8.28,1.27,12.07,3.79,9.54,14.17,10.66,20.07,10.66,3,0,10.38-.13,15.86-4.91s5.47-10.53,5.47-18.81V136.57Z" transform="translate(-0.1 0)"/></svg>