<svg id="Layer_1" data-name="Layer 1" xmlns="http://www.w3.org/2000/svg" width="auto" height="auto" viewBox="0 0 283.46 283.46"><defs><style>.cls-1{fill:#fff;}.cls-2{fill:#fb4f93;}</style></defs><title>BBFC 15_RGB</title><path d="M141.73,0A141.73,141.73,0,1,0,283.46,141.73,141.74,141.74,0,0,0,141.73,0Zm0,278.49A136.76,136.76,0,1,1,278.49,141.73,136.76,136.76,0,0,1,141.73,278.49Z" transform="translate(0 0)"/><path class="cls-1" d="M141.73,5A136.76,136.76,0,1,0,278.49,141.73,136.76,136.76,0,0,0,141.73,5Zm0,261.09A124.33,124.33,0,1,1,266.06,141.73,124.32,124.32,0,0,1,141.73,266.06Z" transform="translate(0 0)"/><circle class="cls-2" cx="141.73" cy="141.73" r="124.33" transform="translate(-58.71 141.73) rotate(-45)"/><path class="cls-1" d="M114,90.43v99.48H95.9V133c0-9.43,0-12.23-8.11-12.23H71.57V109.44h1.92c9.29-.15,21.81-.29,25.8-19Z" transform="translate(0 0)"/><path class="cls-1" d="M191.23,106.79H152.46l-3.39,22c4.42-4.42,11.5-7.37,19.16-7.37,17.69,0,30.22,13.11,30.22,33.16,0,20.49-13.41,36.7-37,36.7a41,41,0,0,1-18.87-4.13c-13.86-7.37-14.89-20.19-15.33-25.05l20.64-1.48c.43,10.17,6.77,14.74,14.29,14.74a15.09,15.09,0,0,0,8.7-2.36c4.42-3,7.51-9.87,7.51-17.68,0-12.39-7.66-18.72-16.5-18.72-6.78,0-12.53,3.09-14.89,9.28l-16.66-1,7.08-54.68H192.7Z" transform="translate(0 0)"/></svg>