<?xml version="1.0" encoding="UTF-8"?>
<svg width="auto" height="auto" viewBox="0 0 50 34" version="1.1" xmlns="http://www.w3.org/2000/svg" xmlns:xlink="http://www.w3.org/1999/xlink">
    <title>R18</title>
    <g id="R18" stroke="none" stroke-width="1" fill="none" fill-rule="evenodd">
        <polygon id="Fill-1" fill="#0A69B2" points="0 34 50 34 50 0 0 0"></polygon>
        <path d="M38.6035,6.6716 C41.9505,6.6716 44.7335,8.8366 44.7335,12.3796 C44.7335,14.5176 43.4965,15.8386 42.4845,16.5416 C43.5815,17.2736 45.0145,18.5946 45.0145,21.0416 C45.0145,24.9226 42.1465,27.0316 38.6035,27.0316 C35.0595,27.0316 32.1915,24.9226 32.1915,21.0416 C32.1915,18.5946 33.5975,17.2736 34.6945,16.5416 C33.6815,15.8386 32.4445,14.5176 32.4445,12.3796 C32.4445,8.8366 35.2565,6.6716 38.6035,6.6716 Z M12.6182,6.8399 C16.6962,6.8399 19.1152,9.6239 19.1152,12.9709 C19.1152,15.7829 17.3992,17.5259 15.4592,18.2289 L19.9302,26.8629 L15.4022,26.8629 L11.4942,18.8759 L8.6812,18.8759 L8.6812,26.8629 L4.7722,26.8629 L4.7722,6.8399 L12.6182,6.8399 Z M29.466,6.84 L29.466,26.863 L25.557,26.863 L25.557,6.84 L29.466,6.84 Z M38.6035,18.2006 C37.0565,18.2006 35.8475,19.4386 35.8475,20.9846 C35.8475,22.5316 37.0565,23.7406 38.6035,23.7406 C40.1505,23.7406 41.3595,22.5316 41.3595,20.9846 C41.3595,19.4386 40.1505,18.2006 38.6035,18.2006 Z M12.3652,10.3269 L8.6812,10.3269 L8.6812,15.6139 L12.3652,15.6139 C14.0812,15.6139 15.2062,14.5169 15.2062,12.9709 C15.2062,11.4239 14.0812,10.3269 12.3652,10.3269 Z M38.6035,9.9616 C37.1685,9.9616 36.1005,11.0586 36.1005,12.4926 C36.1005,13.9546 37.1685,15.0236 38.6035,15.0236 C40.0375,15.0236 41.0785,13.9546 41.0785,12.4926 C41.0785,11.0586 40.0375,9.9616 38.6035,9.9616 Z" id="Combined-Shape" fill="#FFFFFF"></path>
    </g>
</svg>