<?xml version="1.0" encoding="UTF-8"?>
<svg width="auto" height="auto" viewBox="0 0 50 37" version="1.1" xmlns="http://www.w3.org/2000/svg" xmlns:xlink="http://www.w3.org/1999/xlink">
    <title>UC</title>
    <g id="UC" stroke="none" stroke-width="1" fill="none" fill-rule="evenodd">
        <polygon id="Fill-1" fill="#009470" points="0 37 50 37 25 0.334"></polygon>
        <path d="M18.7121,16.0657 L18.7121,28.5847 C18.7121,30.8017 20.0101,32.1267 22.0381,32.1267 C24.0651,32.1267 25.3911,30.8017 25.3911,28.5847 L25.3911,16.0657 L29.1221,16.0657 L29.1220159,23.6263546 C30.0349315,22.4970133 31.4168856,21.9669 33.038,21.9669 C35.601,21.9669 37.359,23.3329 37.789,26.1389 L34.834,26.1389 C34.702,25.3159 34.142,24.5489 33.038,24.5489 C31.747,24.5489 31.055,25.4849 31.055,27.5979 L31.055,29.6179 C31.055,31.6389 31.729,32.6679 33.038,32.6679 C34.142,32.6679 34.647,32.1069 34.834,31.0769 L37.789,31.0769 C37.34,33.9779 35.769,35.2489 33.038,35.2489 C30.8071752,35.2489 29.0292404,34.2236956 28.3032317,32.0418232 C27.12291,34.1922811 24.775277,35.4797 22.0381,35.4797 C18.0901,35.4797 14.9531,32.8027 14.9531,28.7197 L14.9531,16.0657 L18.7121,16.0657 Z" id="Combined-Shape" fill="#FFFFFF"></path>
    </g>
</svg>