<?xml version="1.0" encoding="UTF-8"?>
<svg width="auto" height="auto" viewBox="0 0 381 52" version="1.1" xmlns="http://www.w3.org/2000/svg" xmlns:xlink="http://www.w3.org/1999/xlink">
    <title>_Assets/_Common/Branding/Apple_TV_Channels/AppleTV Channels - blk</title>
    <g id="_Assets/_Common/Branding/Apple_TV_Channels/AppleTV-Channels---blk" stroke="none" stroke-width="1" fill="none" fill-rule="evenodd">
        <path d="M245.38934,14.3750989 C239.815611,14.3750989 235.962375,16.92957 234.001579,21.0714851 L233.829635,21.0714851 L233.829635,14.9965708 L226.742059,14.9965708 L226.742059,51.3099446 L234.173524,51.3099446 L234.173524,30.1503561 C234.173524,24.5233448 237.545104,20.7955685 242.77442,20.7955685 C247.935378,20.7955685 250.481416,23.7989976 250.481416,29.2529676 L250.481416,51.3099446 L257.947059,51.3099446 L257.947059,27.8032181 C257.947059,19.4840412 253.371342,14.3750989 245.38934,14.3750989 L245.38934,14.3750989 Z M282.763828,14.3750989 C277.190624,14.3750989 273.336863,16.92957 271.376067,21.0714851 L271.204123,21.0714851 L271.204123,14.9965708 L264.116547,14.9965708 L264.116547,51.3099446 L271.548012,51.3099446 L271.548012,30.1503561 C271.548012,24.5233448 274.919592,20.7955685 280.148908,20.7955685 C285.309866,20.7955685 287.855904,23.7989976 287.855904,29.2529676 L287.855904,51.3099446 L295.321547,51.3099446 L295.321547,27.8032181 C295.321547,19.4840412 290.74583,14.3750989 282.763828,14.3750989 L282.763828,14.3750989 Z M213.422948,34.8451596 L204.512342,35.3975204 C200.073865,35.7077288 197.562531,37.6755473 197.562531,40.7823793 C197.562531,43.9577948 200.177452,46.0290161 204.167927,46.0290161 C209.363064,46.0290161 213.422948,42.4389343 213.422948,37.7093115 L213.422948,34.8451596 Z M220.819708,26.2843577 L220.819708,51.3099446 L213.697954,51.3099446 L213.697954,45.3384331 L213.526009,45.3384331 C211.427447,49.3769454 206.851731,51.9314165 202.10407,51.9314165 C195.016494,51.9314165 190.062184,47.5130572 190.062184,40.9891849 C190.062184,34.6378264 194.913432,30.7370087 203.514328,30.2537589 L213.422948,29.6671063 L213.422948,26.8710103 C213.422948,22.832498 210.704966,20.416249 206.163428,20.416249 C201.863242,20.416249 199.179439,22.4874703 198.52584,25.7319968 L191.507147,25.7319968 C191.919919,19.1738328 197.493649,14.3413347 206.438959,14.3413347 C215.2118,14.3413347 220.819708,19.0007913 220.819708,26.2843577 L220.819708,26.2843577 Z M338.112018,51.3099446 L345.543482,51.3099446 L345.543482,1.50039567 L338.112018,1.50039567 L338.112018,51.3099446 Z M370.327125,30.9438143 L364.444211,29.5979953 C360.522093,28.7006067 358.870481,27.1469269 358.870481,24.8689 C358.870481,21.9694012 361.554285,20.0021103 365.579464,20.0021103 C369.742409,20.0021103 372.322625,22.2115537 372.735923,25.7319968 L379.719912,25.7319968 C379.479084,19.0356107 374.008416,14.3413347 365.579464,14.3413347 C357.253573,14.3413347 351.611487,18.7934582 351.611487,25.2830388 C351.611487,30.5644949 355.017246,33.87866 361.898173,35.4666315 L367.781613,36.8472698 C371.73791,37.7446584 373.079811,39.1252968 373.079811,41.4724347 C373.079811,44.4410446 370.327125,46.3049327 365.854996,46.3049327 C361.313457,46.3049327 358.733241,44.4410446 358.044938,40.6441572 L350.682356,40.6441572 C351.370659,47.5478765 356.806623,52 365.854996,52 C374.387009,52 380.545455,47.4439462 380.545455,40.8161435 C380.545455,35.5695067 377.724411,32.6700079 370.327125,30.9438143 L370.327125,30.9438143 Z M325.575858,29.8053284 C325.403914,24.2474281 321.894567,20.347138 316.69943,20.347138 C311.504293,20.347138 307.857707,24.3165392 307.479114,29.8053284 L325.575858,29.8053284 Z M333.007323,32.4626748 L333.007323,35.0171459 L307.444935,35.0171459 L307.444935,35.4666315 C307.444935,41.7826431 311.229288,45.959905 317.181085,45.959905 C321.412913,45.959905 324.543666,43.8201002 325.54168,40.6441572 L332.594551,40.6441572 C331.562359,47.2714323 325.300852,52 317.00914,52 C306.378039,52 299.944588,44.7865998 299.944588,33.3262991 C299.944588,21.9351095 306.481627,14.3413347 316.69943,14.3413347 C326.745816,14.3413347 333.007323,21.4518597 333.007323,32.4626748 L333.007323,32.4626748 Z M34.856417,27.3526774 C34.7927924,20.8398839 40.1472538,17.7425481 40.3996492,17.5505144 C37.3756378,13.0635716 32.651113,12.5576365 31.0131725,12.4294381 C26.7918609,12.1777895 23.203115,14.8335532 21.1876332,14.8335532 C19.170574,14.8335532 16.0839896,12.5576365 12.7455357,12.6183065 C8.40012972,12.6826695 4.36811456,15.1479821 2.16281048,19.0683197 C-2.37241784,26.9111052 0.96603603,38.5449749 5.37664417,44.9327354 C7.51832359,48.0928515 10.0995915,51.5726721 13.5011442,51.4476391 C16.7144521,51.3210235 17.9737995,49.3600633 21.8806687,49.3600633 C25.7838571,49.3600633 26.9185844,51.4476391 30.3201371,51.3843313 C33.8478874,51.3210235 36.0531915,48.2226326 38.1948709,45.0593511 C40.6520445,41.4571353 41.657945,37.9783698 41.7210438,37.7879188 C41.657945,37.7240834 34.91899,35.1305724 34.856417,27.3526774 L34.856417,27.3526774 Z M172.219413,14.3750989 C166.714566,14.3750989 162.758269,16.8261672 160.762769,21.0714851 L160.590824,21.0714851 L160.590824,1.50039567 L153.228243,1.50039567 L153.228243,51.3099446 L160.659707,51.3099446 L160.659707,30.32287 C160.659707,24.5924558 164.031288,20.7955685 169.536135,20.7955685 C174.76545,20.7955685 177.448728,24.0063308 177.448728,29.3558428 L177.448728,51.3099446 L184.914897,51.3099446 L184.914897,27.9060934 C184.914897,19.6908467 180.16671,14.3750989 172.219413,14.3750989 L172.219413,14.3750989 Z M57.8948511,6.43576893 L50.7709933,6.43576893 L50.7709933,15.0261145 L45.4975087,15.0261145 L45.4975087,20.695331 L50.7709933,20.695331 L50.7709933,41.6212081 C50.7709933,48.561857 53.5452385,51.3109997 60.6685705,51.3109997 C62.2781164,51.3109997 63.9223668,51.1733052 64.744229,51.0018465 L64.744229,45.297283 C64.2641521,45.3663941 63.0316216,45.4692693 62.2781164,45.4692693 C59.2646215,45.4692693 57.8948511,44.0263783 57.8948511,40.8994988 L57.8948511,20.695331 L64.7784075,20.695331 L64.7784075,15.0261145 L57.8948511,15.0261145 L57.8948511,6.43576893 Z M28.3935195,8.24531786 C30.16239,6.0258507 31.3628452,3.04510683 31.0457736,0 C28.4566183,0.12872593 25.2974703,1.71353205 23.4681301,3.93510947 C21.8254572,5.83698233 20.371555,8.9422316 20.7506738,11.8601952 C23.6569007,12.1134265 26.5610243,10.4030599 28.3935195,8.24531786 L28.3935195,8.24531786 Z M133.090251,45.7530994 C127.310399,45.7530994 123.491342,41.127407 123.491342,33.1532577 C123.491342,25.3521498 127.27622,20.5544711 133.021368,20.5544711 C137.872617,20.5544711 140.762543,23.6259562 141.519203,27.4919546 L148.606779,27.4919546 C147.953181,20.347138 142.276389,14.3413347 132.952486,14.3413347 C122.665799,14.3413347 115.922637,21.623846 115.922637,33.1532577 C115.922637,44.8894751 122.665799,52 133.021368,52 C141.725852,52 147.884298,46.7533632 148.675662,39.0213664 L141.519203,39.0213664 C140.659482,43.2323925 137.665968,45.7530994 133.090251,45.7530994 L133.090251,45.7530994 Z M94.128302,15.0313901 L101.516649,15.0313901 L88.8711179,51.0298074 L81.3118782,51.0298074 L68.59799,15.0313901 L76.1230512,15.0313901 L85.0404931,43.9604326 L85.2113858,43.9604326 L94.128302,15.0313901 Z" id="Logo-Copy" fill="#000000"></path>
    </g>
</svg>