<?xml version="1.0" encoding="UTF-8"?>
<svg width="auto" height="auto" viewBox="0 0 22 22" version="1.1" xmlns="http://www.w3.org/2000/svg" xmlns:xlink="http://www.w3.org/1999/xlink">
    <title>_Assets/_Common/Rotten Tomatoes/rotten-tomatoes-fresh</title>
    <g id="_Assets/_Common/Rotten-Tomatoes/rotten-tomatoes-fresh" stroke="none" stroke-width="1" fill="none" fill-rule="evenodd">
        <path d="M21.6920334,11.9097593 C21.4797513,8.50843154 19.7488853,5.96364315 17.1445024,4.54094606 C17.1593,4.62383402 17.0854946,4.72744398 17.0014586,4.69074689 C15.2979956,3.9460332 12.4081646,6.35617427 10.3887448,5.09404979 C10.4039078,5.54701245 10.315396,7.75659751 7.20086024,7.88476349 C7.1273288,7.88777593 7.08686368,7.81273859 7.13335747,7.75960996 C7.54988336,7.28482988 7.97042835,6.08277178 7.36573507,5.44194191 C6.07075973,6.60164315 5.31872955,7.03808299 2.835742,6.46215768 C1.24600152,8.12338589 0.345172943,10.3970539 0.522013759,13.2293942 C0.882820175,19.0112863 6.30194987,22.3163071 11.7590784,21.9759917 C17.2158416,21.6359502 22.0529312,17.6916515 21.6920334,11.9097593" id="Fill-1" fill="#FA320A"></path>
        <path d="M11.7467471,3.15284647 C12.8680786,2.88574274 16.0934139,3.12682988 17.1267818,4.49676349 C17.1888039,4.57892116 17.1014797,4.73438174 17.0014586,4.69074689 C15.2979956,3.9460332 12.4081646,6.35617427 10.3887448,5.09404979 C10.4039078,5.54701245 10.315396,7.75659751 7.20086024,7.88476349 C7.1273288,7.88777593 7.08686368,7.81273859 7.13335747,7.75960996 C7.54988336,7.28482988 7.97033701,6.08277178 7.36573507,5.44194191 C5.95511899,6.70525311 5.19039208,7.11120332 2.12874411,6.28414938 C2.0285404,6.25712863 2.06270283,6.09619087 2.16930057,6.05556846 C2.74796099,5.83456432 4.05892142,4.86656432 5.29918206,4.43989212 C5.53530474,4.35873859 5.77069668,4.29575104 6.00042532,4.25914523 C4.63484154,4.13718672 4.01927839,3.94740249 3.15069403,4.07830705 C3.05551421,4.092639 2.99084308,3.98190871 3.04985092,3.90595851 C4.22014252,2.39946058 6.37602936,1.94448963 7.70617191,2.74479668 C6.88627358,1.72951037 6.24403816,0.91980083 6.24403816,0.91980083 L7.76581915,0.0559585062 C7.76581915,0.0559585062 8.39453574,1.45975934 8.85198348,2.48143568 C9.98400219,0.809892116 12.0901982,0.655618257 12.9800656,1.84160996 C13.0328621,1.91208299 12.9776907,2.01231535 12.8895443,2.01021577 C12.1652825,1.99259751 11.7664772,2.65095436 11.7362426,3.15165975 L11.7467471,3.15284647" id="Fill-4" fill="#00912D"></path>
    </g>
</svg>