<?xml version="1.0" encoding="UTF-8"?>
<svg width="auto" height="auto" viewBox="0 0 560 336" version="1.1" xmlns="http://www.w3.org/2000/svg" xmlns:xlink="http://www.w3.org/1999/xlink">
    <title>AppleTV-560</title>
    <defs>
        <linearGradient x1="50%" y1="1.02143155%" x2="50%" y2="100%" id="linearGradient-1">
            <stop stop-color="#333333" offset="0%"></stop>
            <stop stop-color="#010101" offset="100%"></stop>
        </linearGradient>
        <path d="M434,125.955 L411.5847,125.955 L384.5297,213.4346 L384.0113,213.4346 L356.9563,125.955 L334.1267,125.955 L372.6996,234.8112 L395.6333,234.8112 L434,125.955 Z M280.0402,99.9622 L280.0402,125.9392 L264.0377,125.9392 L264.0377,143.0845 L280.0402,143.0845 L280.0402,206.3602 C280.0402,227.3499 288.4558,235.6614 310.068,235.6614 C314.9512,235.6614 319.9385,235.2452 322.4341,234.7248 L322.4341,217.4775 C320.9772,217.6876 317.2367,217.9978 314.9512,217.9978 C305.8092,217.9978 301.6525,213.6329 301.6525,204.1787 L301.6525,143.0845 L322.5362,143.0845 L322.5362,125.9392 L301.6525,125.9392 L301.6525,99.9622 L280.0402,99.9622 Z M220.0947,118.0872 C207.2868,117.3254 196.3992,125.3561 190.2829,125.3561 C184.1647,125.3561 174.7988,118.4721 164.6691,118.6586 C151.4862,118.851 139.2536,126.3064 132.562,138.162 C118.8018,161.8791 128.9315,197.0591 142.3127,216.376 C148.8099,225.9323 156.6423,236.45271 166.9625,236.07572 C176.7112,235.6948 180.5341,229.7631 192.3858,229.7631 C204.2277,229.7631 207.6697,236.07572 217.9918,235.8853 C228.6948,235.6948 235.3864,226.323 241.8836,216.7588 C249.339,205.8634 252.3903,195.3449 252.5827,194.7677 C252.3903,194.5772 231.9444,186.733 231.7539,163.2143 C231.5615,143.5184 247.8075,134.1526 248.5732,133.5714 C239.3978,120.0016 225.0623,118.4721 220.0947,118.0872 L220.0947,118.0872 Z M212.1464,105.4325 C206.5858,111.9572 197.7756,117.129 188.9575,116.3652 C187.8089,107.5413 192.2189,98.1518 197.2023,92.3988 C202.7531,85.6817 212.3369,80.8888 220.1929,80.5 C221.155,89.7088 217.5127,98.7213 212.1464,105.4325 L212.1464,105.4325 Z" id="path-2"></path>
    </defs>
    <g id="AppleTV-560" stroke="none" stroke-width="1" fill="none" fill-rule="evenodd">
        <polygon id="Fill-3" fill="url(#linearGradient-1)" points="0 0 560 0 560 336 0 336"></polygon>
        <mask id="mask-3" fill="white">
            <use xlink:href="#path-2"></use>
        </mask>
        <use id="Clip-7" fill="#FFFFFF" xlink:href="#path-2"></use>
    </g>
</svg>